/* XPM */
static char * collectible1_xpm[] = {
"64 64 622 2",
"  	c #1D212C",
". 	c #1F232E",
"+ 	c #272C38",
"@ 	c #282E39",
"# 	c #282D39",
"$ 	c #242832",
"% 	c #222731",
"& 	c #1D212D",
"* 	c #252B36",
"= 	c #434A51",
"- 	c #484F56",
"; 	c #484F55",
"> 	c #484F54",
", 	c #434B50",
"' 	c #282D36",
") 	c #232832",
"! 	c #242933",
"~ 	c #212530",
"{ 	c #1E222D",
"] 	c #222631",
"^ 	c #232632",
"/ 	c #424550",
"( 	c #484A55",
"_ 	c #494B56",
": 	c #4E535C",
"< 	c #4E565B",
"[ 	c #4A5256",
"} 	c #495155",
"| 	c #474F54",
"1 	c #474E54",
"2 	c #272C35",
"3 	c #444B50",
"4 	c #485055",
"5 	c #495156",
"6 	c #4A5257",
"7 	c #4E565C",
"8 	c #4F575D",
"9 	c #4D555B",
"0 	c #3F424D",
"a 	c #252834",
"b 	c #444C51",
"c 	c #2C313B",
"d 	c #40434E",
"e 	c #444652",
"f 	c #434651",
"g 	c #3E404C",
"h 	c #262935",
"i 	c #4D505B",
"j 	c #4E525D",
"k 	c #6B757C",
"l 	c #545D61",
"m 	c #545D62",
"n 	c #535C61",
"o 	c #4B4F59",
"p 	c #4A4D57",
"q 	c #494C57",
"r 	c #484C56",
"s 	c #4D5359",
"t 	c #444B51",
"u 	c #454C51",
"v 	c #4F575B",
"w 	c #4B5357",
"x 	c #343A42",
"y 	c #4F585D",
"z 	c #555E63",
"A 	c #565E63",
"B 	c #565F64",
"C 	c #545C62",
"D 	c #494D57",
"E 	c #3E414C",
"F 	c #4F575C",
"G 	c #50585E",
"H 	c #535B61",
"I 	c #525A60",
"J 	c #444752",
"K 	c #3D404B",
"L 	c #4C4F5A",
"M 	c #545C61",
"N 	c #51595E",
"O 	c #4A4E58",
"P 	c #4E555A",
"Q 	c #232732",
"R 	c #50595E",
"S 	c #272C36",
"T 	c #464D53",
"U 	c #424450",
"V 	c #484B56",
"W 	c #535B60",
"X 	c #4A5157",
"Y 	c #2B303B",
"Z 	c #434A50",
"` 	c #4F565C",
" .	c #4B5059",
"..	c #434950",
"+.	c #2E323C",
"@.	c #444853",
"#.	c #252A36",
"$.	c #434652",
"%.	c #292D38",
"&.	c #4C505A",
"*.	c #494B57",
"=.	c #4A4D58",
"-.	c #262A36",
";.	c #242934",
">.	c #4A5258",
",.	c #51585F",
"'.	c #474955",
").	c #484A56",
"!.	c #2E333F",
"~.	c #4B545A",
"{.	c #4F555D",
"].	c #4E555B",
"^.	c #454D53",
"/.	c #282E3A",
"(.	c #2E343F",
"_.	c #323844",
":.	c #2B303C",
"<.	c #4F585E",
"[.	c #454853",
"}.	c #586167",
"|.	c #69747B",
"1.	c #333945",
"2.	c #4A5359",
"3.	c #50575E",
"4.	c #272B35",
"5.	c #50545F",
"6.	c #717C83",
"7.	c #303542",
"8.	c #4E565D",
"9.	c #282D37",
"0.	c #495158",
"a.	c #242833",
"b.	c #555E62",
"c.	c #4F535E",
"d.	c #6B757D",
"e.	c #2E3440",
"f.	c #40444F",
"g.	c #2A2F39",
"h.	c #545D63",
"i.	c #4A4C58",
"j.	c #484B57",
"k.	c #282C39",
"l.	c #232734",
"m.	c #2A2E3B",
"n.	c #292E38",
"o.	c #6D787F",
"p.	c #5B6469",
"q.	c #414450",
"r.	c #222633",
"s.	c #4B4E59",
"t.	c #727D84",
"u.	c #5C656A",
"v.	c #232733",
"w.	c #212532",
"x.	c #1F242F",
"y.	c #2B2F3C",
"z.	c #3F424E",
"A.	c #444753",
"B.	c #464954",
"C.	c #4D555C",
"D.	c #4C535A",
"E.	c #484C57",
"F.	c #606972",
"G.	c #272C37",
"H.	c #6D787E",
"I.	c #5A6368",
"J.	c #3F414D",
"K.	c #272B38",
"L.	c #454D54",
"M.	c #2D323E",
"N.	c #2D343E",
"O.	c #2C373D",
"P.	c #2E393E",
"Q.	c #2D353D",
"R.	c #242733",
"S.	c #272B37",
"T.	c #4D545A",
"U.	c #50585C",
"V.	c #50585D",
"W.	c #525960",
"X.	c #42624F",
"Y.	c #357D3F",
"Z.	c #2CB030",
"`.	c #2CB02F",
" +	c #2DB030",
".+	c #309B36",
"++	c #366642",
"@+	c #2D353E",
"#+	c #292E3A",
"$+	c #232833",
"%+	c #3F434D",
"&+	c #282C36",
"*+	c #424751",
"=+	c #52625F",
"-+	c #388540",
";+	c #3BB83C",
">+	c #4AD146",
",+	c #5AAB55",
"'+	c #599155",
")+	c #5D955A",
"!+	c #569253",
"~+	c #57CF51",
"{+	c #42CE40",
"]+	c #2D9033",
"^+	c #42664F",
"/+	c #454954",
"(+	c #464C54",
"_+	c #272B36",
":+	c #444751",
"<+	c #4F565B",
"[+	c #4E575D",
"}+	c #2B3039",
"|+	c #2B303A",
"1+	c #2B313B",
"2+	c #2F3440",
"3+	c #424651",
"4+	c #2A2F3B",
"5+	c #526160",
"6+	c #38963E",
"7+	c #53D74E",
"8+	c #56AC51",
"9+	c #596F58",
"0+	c #636763",
"a+	c #909090",
"b+	c #9C9C9C",
"c+	c #757675",
"d+	c #636E63",
"e+	c #5C9758",
"f+	c #58C552",
"g+	c #40C240",
"h+	c #456B51",
"i+	c #232631",
"j+	c #434550",
"k+	c #2E333C",
"l+	c #2F3540",
"m+	c #232834",
"n+	c #2A303A",
"o+	c #35863E",
"p+	c #58EA52",
"q+	c #578F54",
"r+	c #5F605F",
"s+	c #7B7B7B",
"t+	c #626262",
"u+	c #A4A4A4",
"v+	c #9D9D9D",
"w+	c #808080",
"x+	c #7E7E7E",
"y+	c #7D7D7D",
"z+	c #5B685A",
"A+	c #61DF59",
"B+	c #38B83A",
"C+	c #4E645B",
"D+	c #272A36",
"E+	c #555D62",
"F+	c #4B5359",
"G+	c #252A35",
"H+	c #2E343E",
"I+	c #555E64",
"J+	c #2E9035",
"K+	c #63F65C",
"L+	c #557952",
"M+	c #767676",
"N+	c #858585",
"O+	c #5A5A5A",
"P+	c #727272",
"Q+	c #494949",
"R+	c #8A8A8A",
"S+	c #969696",
"T+	c #6B6A6B",
"U+	c #62D95A",
"V+	c #3BCA3A",
"W+	c #4C6659",
"X+	c #424650",
"Y+	c #4A5259",
"Z+	c #495157",
"`+	c #79858B",
" @	c #2F8839",
".@	c #70F667",
"+@	c #579054",
"@@	c #6B6B6B",
"#@	c #838383",
"$@	c #555555",
"%@	c #6F6F6F",
"&@	c #878787",
"*@	c #7B7A7B",
"=@	c #596658",
"-@	c #65E15D",
";@	c #46BF45",
">@	c #4C645A",
",@	c #222733",
"'@	c #2A2E3A",
")@	c #414550",
"!@	c #2A2F38",
"~@	c #2F343E",
"{@	c #78838A",
"]@	c #7A868C",
"^@	c #2C6F3C",
"/@	c #78F66B",
"(@	c #78F06D",
"_@	c #60BC59",
":@	c #5E775D",
"<@	c #757974",
"[@	c #868686",
"}@	c #677366",
"|@	c #5D9F59",
"1@	c #69D460",
"2@	c #88F27F",
"3@	c #358B49",
"4@	c #4C5C5B",
"5@	c #282C37",
"6@	c #41454F",
"7@	c #4B505A",
"8@	c #606A6F",
"9@	c #246B35",
"0@	c #38F62E",
"a@	c #74FE66",
"b@	c #95FE8B",
"c@	c #90F58A",
"d@	c #5DB058",
"e@	c #589055",
"f@	c #589054",
"g@	c #589454",
"h@	c #6FE366",
"i@	c #8AF77D",
"j@	c #78D86E",
"k@	c #2DB73A",
"l@	c #1A8238",
"m@	c #262A37",
"n@	c #1E222E",
"o@	c #212632",
"p@	c #2A3039",
"q@	c #252A34",
"r@	c #282E37",
"s@	c #2E333D",
"t@	c #313540",
"u@	c #6C757D",
"v@	c #778289",
"w@	c #35F62C",
"x@	c #38FE2D",
"y@	c #53FD49",
"z@	c #7AFE73",
"A@	c #ABFAA7",
"B@	c #A9F6A4",
"C@	c #97F38C",
"D@	c #9AF290",
"E@	c #72DE68",
"F@	c #38B537",
"G@	c #0CA011",
"H@	c #14AB25",
"I@	c #1A8239",
"J@	c #222734",
"K@	c #2D333E",
"L@	c #2C323D",
"M@	c #292F38",
"N@	c #68737A",
"O@	c #535A61",
"P@	c #276F38",
"Q@	c #35E42B",
"R@	c #2A8025",
"S@	c #37EC2D",
"T@	c #34EF29",
"U@	c #28DC1E",
"V@	c #1CCB12",
"W@	c #1CCA12",
"X@	c #12B410",
"Y@	c #099F0F",
"Z@	c #515560",
"`@	c #232835",
" #	c #464854",
".#	c #434551",
"+#	c #287039",
"@#	c #32DC2A",
"##	c #2EA127",
"$#	c #202320",
"%#	c #2FAB27",
"&#	c #2BDA21",
"*#	c #21DB17",
"=#	c #16CA0C",
"-#	c #15C80B",
";#	c #0FB30C",
">#	c #596268",
",#	c #6D777E",
"'#	c #464A54",
")#	c #2A2D39",
"!#	c #2C9D27",
"~#	c #212520",
"{#	c #202020",
"]#	c #202520",
"^#	c #26A81E",
"/#	c #555D63",
"(#	c #4A4E59",
"_#	c #282D3A",
":#	c #292F3B",
"<#	c #277038",
"[#	c #35F52B",
"}#	c #32D029",
"|#	c #202620",
"1#	c #34DF2A",
"2#	c #2DEE22",
"3#	c #16CA0B",
"4#	c #1A8138",
"5#	c #272C39",
"6#	c #354B3C",
"7#	c #3AB433",
"8#	c #36ED2C",
"9#	c #32CC29",
"0#	c #36F62B",
"a#	c #2DEF22",
"b#	c #16CA0A",
"c#	c #15C80A",
"d#	c #0EB20C",
"e#	c #089E0F",
"f#	c #179B27",
"g#	c #295438",
"h#	c #4E575B",
"i#	c #3D404C",
"j#	c #35363B",
"k#	c #40513F",
"l#	c #3D9937",
"m#	c #38DE2F",
"n#	c #37F72D",
"o#	c #2DED23",
"p#	c #16C90A",
"q#	c #0EB10C",
"r#	c #099710",
"s#	c #0F6F15",
"t#	c #274D2E",
"u#	c #2E2F33",
"v#	c #4D545B",
"w#	c #2C313D",
"x#	c #313236",
"y#	c #414141",
"z#	c #424542",
"A#	c #41563F",
"B#	c #3E823A",
"C#	c #33A52C",
"D#	c #27A920",
"E#	c #1C9A14",
"F#	c #1C9915",
"G#	c #177B16",
"H#	c #193B1B",
"I#	c #1E241E",
"J#	c #2C2D2F",
"K#	c #2D3033",
"L#	c #4E565A",
"M#	c #434951",
"N#	c #272D38",
"O#	c #3A3D49",
"P#	c #2A2C30",
"Q#	c #424242",
"R#	c #434243",
"S#	c #3B3D3B",
"T#	c #343634",
"U#	c #2D2E2D",
"V#	c #2C2E2C",
"W#	c #262726",
"X#	c #1F1F1F",
"Y#	c #2D2F33",
"Z#	c #4B5257",
"`#	c #3E414D",
" $	c #454953",
".$	c #383B3D",
"+$	c #505050",
"@$	c #434343",
"#$	c #3C3C3C",
"$$	c #343434",
"%$	c #2D2D2D",
"&$	c #262626",
"*$	c #2C2E32",
"=$	c #3D404A",
"-$	c #262A35",
";$	c #212633",
">$	c #454B51",
",$	c #454B52",
"'$	c #474A55",
")$	c #3B3E40",
"!$	c #515151",
"~$	c #333B33",
"{$	c #2A3E29",
"]$	c #2A3D29",
"^$	c #262925",
"/$	c #4B5258",
"($	c #262B37",
"_$	c #495056",
":$	c #454C52",
"<$	c #4C5359",
"[$	c #454545",
"}$	c #2C6D28",
"|$	c #15C60B",
"1$	c #16C30B",
"2$	c #223F20",
"3$	c #484F57",
"4$	c #1F232F",
"5$	c #3F434E",
"6$	c #444444",
"7$	c #464646",
"8$	c #265823",
"9$	c #16C20C",
"0$	c #223E21",
"a$	c #2E3033",
"b$	c #4D555A",
"c$	c #50555F",
"d$	c #292F3A",
"e$	c #484848",
"f$	c #284927",
"g$	c #164F19",
"h$	c #18431A",
"i$	c #293C2D",
"j$	c #525A5F",
"k$	c #6C767D",
"l$	c #464D55",
"m$	c #2B313C",
"n$	c #41484E",
"o$	c #4D5559",
"p$	c #4D5459",
"q$	c #116D15",
"r$	c #145917",
"s$	c #27452C",
"t$	c #40474E",
"u$	c #323840",
"v$	c #294527",
"w$	c #19AC10",
"x$	c #233B21",
"y$	c #1B341C",
"z$	c #155817",
"A$	c #2B322E",
"B$	c #2C303D",
"C$	c #1E232E",
"D$	c #252936",
"E$	c #495055",
"F$	c #4A5156",
"G$	c #4B4F58",
"H$	c #1F201F",
"I$	c #41474E",
"J$	c #333435",
"K$	c #3F4040",
"L$	c #252526",
"M$	c #303236",
"N$	c #3E4447",
"O$	c #3D3F4B",
"P$	c #464A55",
"Q$	c #292D3A",
"R$	c #333537",
"S$	c #373838",
"T$	c #3F3F3F",
"U$	c #353535",
"V$	c #2F2F2F",
"W$	c #2B2B2B",
"X$	c #2B2C2E",
"Y$	c #3F4447",
"Z$	c #222531",
"`$	c #444A51",
" %	c #41474A",
".%	c #343638",
"+%	c #333333",
"@%	c #323434",
"#%	c #35393B",
"$%	c #51595D",
"%%	c #272A35",
"&%	c #424551",
"*%	c #2C303C",
"=%	c #515A5E",
"-%	c #474D51",
";%	c #464D51",
">%	c #2A2D38",
",%	c #30343F",
"'%	c #495057",
")%	c #313742",
"!%	c #626B73",
"~%	c #4F545E",
"{%	c #4B5259",
"]%	c #31353F",
"^%	c #51595F",
"/%	c #40434F",
"(%	c #41444F",
"_%	c #282D38",
":%	c #474F55",
"<%	c #4A5158",
"[%	c #2C303B",
"}%	c #20242F",
"|%	c #2C313C",
"1%	c #464E54",
"2%	c #4E575C",
"3%	c #50575D",
"4%	c #494E57",
"5%	c #52595F",
"6%	c #2A2E39",
"7%	c #50575C",
"8%	c #4C4F5B",
"9%	c #50555E",
"0%	c #6B747C",
"a%	c #4F525D",
"b%	c #444852",
"c%	c #3B3E4A",
"d%	c #454D52",
"e%	c #363C44",
"f%	c #576066",
"g%	c #2A2F3A",
"h%	c #474D53",
"i%	c #232731",
"j%	c #4B5358",
"k%	c #484E54",
"l%	c #343A43",
"m%	c #494C56",
"n%	c #4A4F58",
"o%	c #262B35",
"p%	c #444C53",
"q%	c #4B535A",
"r%	c #484B55",
"s%	c #454C53",
"t%	c #4F545D",
"u%	c #727D83",
"v%	c #747F85",
"w%	c #596267",
"x%	c #2B2F3A",
"y%	c #485057",
"z%	c #4D565B",
"A%	c #474E56",
"B%	c #40474D",
"C%	c #474F56",
"D%	c #4C545B",
"E%	c #3E454B",
"    . + @ # $ %                                                                                                                 ",
"  & * = - ; > , ' ) ) ) ) ) ) %                   % ) ) ) ) ) ) ) $ ! ! ! ) ~               % ) % { ~ ] ] ] ] ] ] ~             ",
"    ^ / ( _ : < [ } | 1 1 1 | , 2               2 3 | 3 4 5 5 5 6 7 8 8 8 9 0 a         % ' 3 5 b c d e e e e e f g h ~         ",
"    h f i j k l m n o p p q r s t 2           2 u v w x y z z z z A B B B C D E a     2 b [ F m m G H C C C C C I D J K ~       ",
"  ~ g L k M l N z z C C C I O O P t Q     % ' u F m m R z B B B B B B B B z I q E h S T n z z A B B B B B B B B z C I J h       ",
"  ] U V W N m z A B B B B z C C M X Y { ] Z [ F m A B B B B B B B B B B B B z I q / t W A B B B B B B B B B B B B B C D g ~     ",
"  ] U ( ` m A B B B B B B B B B C  ...Q ) X m z A B B B B B B B B B B B B B B z I J +.y B B B B B B B z C C C z z m z I f ]     ",
"  ] U V H A B B B B B B B B B B z I @.#.! 7 A B B B B B B B B B B B B B B B B B C $.%.8 B B B B B B B m &.*.=.I I &.C C J h     ",
"  ] U *.C B B B B B B B B B B B B C J -.;.>.z B B B B B B B B B B B B B B B B B C $.%.8 B B B B B B z C ,.=.'.V V *.C C D g ~   ",
"  ~ g ).C B B z m z B B B B B B B C D d Y !.~.z B B B B B B B B B B B B B B B B C $.%.8 B B B B B B C O =.{.V '.'.*.C z I f ]   ",
"    h J C B B C &.C B B B B B B B z H ].^./.(.R B B B B B B B B B B B B B B B B C $.%.8 B B B B B B C O *.V '.'.'.*.C B C $.]   ",
"    ] e C B z I =.C B B B B B B B B z N y _.:.<.B B B B B B B B B B B B B B B B C $.%.8 B B B B B B z C I V '.V V *.C B C [.]   ",
"    ] e C B C =.*.C B B B B B B B B z n }.|.1.2.z B B B B B B B B B B B B B B B C $.%.8 B B B B B B B B C *.V 3.I &.C B z 9 )   ",
"    4.[.C z I V *.C B B B B B B B B m &.5.6.7.!.8.C z B B B B B B B B B B B B B C $.9.0.z B B B B B B B C O *.&.C m z B B 8 a.  ",
"  ] , < b.m &.'.*.C B B B B B B B B z I c.d.e.+ f.=.I z B B B B B B B B B B B B C $.Q g.h.B B B B B B B z C C C z B B B A 7 $   ",
"  ' [ m A z I *.=.C B B B B B B B B B C i.j.k.l.m.0 q I z B B z C C z B B B B z I f ] n.o.p.B B B B B B B B B B B B B B z 6 Q   ",
"] 3 F z B B C &.I z B B B B B B B B B C *.q.^ . r.-.0 D I C C C &.O I C C C C I s.V Q g.t.u.B B B B B B B B B B B B B B z [ '   ",
"Q 5 m A B B z m z B B B B B B B B B B C *.U v.w.x.+ y.z.J A.B.C.D.J J A.J $.$.J E.F.G.n.H.I.z A B B B B B B B B B B B B z v 3 ] ",
"Q 5 z B B B B B B B B B B B B B B B B C V J.K.# g.L.e.M.!.N.O.P.P.O.Q.M.+ R.R.S.k.:.. $ T.U.V.z B B B B B B B B B B B B z v 3 % ",
"Q 5 z B B B B B B B B B B B B B B B z W.q.y.!.2.<.m R y X.Y.Z.`.Z. +.+++@+#+# + R.$+{ ~ %+s F z B B B B B B B B B B B B z [ &+  ",
"Q 5 m A B z <.8 8 8 8 <.R z B B B z I *+y.!.~.z B B =+-+;+>+,+'+)+!+~+{+]+^+7 /+f (+_+{ h :+<+z B B B B B B B B B B B B z 5 Q   ",
"% 3 F m z [+}+g.|+|+1+(.2+2.<.<.<.7 3+4+# 2.z B B 5+6+7+8+9+0+a+b+c+d+e+f+g+h+I O q J.a i+j+<+z B B B B B B B B B B B A m 5 Q   ",
"  2 3 5 5 u k+0.8 8 8 2.2+l+l+!.!.(.+ m+n+<.B B B o+p+q+r+s+t+u+v+w+x+y+z+A+B+C+C I q g D+0 T.E+B B B B B B B B B B B z F 3 %   ",
"    ] Q a.k+F+z B B B z R <.7 B.B.- G+H+<.I+B B B J+K+L+M+N+O+O+P+Q+R+S+T+U+V+W+B z I e S.m.X+W.z B B B B B B B B B A m [ &+    ",
"      { 9.Y+h.m z B B B B B z C H Z+H+o.`+p.B B B  @.@+@@@#@w+$@$@%@&@*@=@-@;@>@B B C $.v.,@'@)@9 y n z B B B A z z m F 3 %     ",
"    { 9.Y+h.I &.C B B B B B B B <.!@~@{@]@p.B B z ^@/@(@_@:@<@w+w+[@}@|@1@2@3@4@B B C e ^ & { ] $+5@6@9 8 8 y n F [ 5 3 2       ",
"    Q 0.h.I =.*.C B B B B B B z 9 n.7@{@8@B B B C 9@0@a@b@c@d@e@f@g@h@i@j@k@l@4@B z I J m@n@n@o@$+! 9.p@g.q@r@b 3 &+Q %         ",
"  { s@R C =.'.*.C B B B B B B C /+t@u@v@p.B B B C 9@w@x@y@z@A@B@C@D@E@F@G@H@I@4@B C o E.# J@m+K@>.8 8 8 >.L@q@n.M@! ] ~ {       ",
"  9.N@I.C *.V O C B B B B B B C D e i c.O@C z B z P@w@Q@R@S@T@U@V@W@X@Y@Y@H@I@4@B C Z@d.e.`@K@~.z B B B z R 8 8 8 9 [.g #.n@    ",
"  n.o.p.C &.I C z B B B B B B z I =. #.#).=.I z B +#@###$#%#&#*#=#-#;#Y@Y@H@I@4@B z >#,#e./.2.z B B B B B B B B B z I '#y.,@&   ",
"  a.[+B z m z B B B B B B B B B z I J )#E  #=.I z +#!#~#{#]#^#*#=#-#;#Y@Y@H@I@4@B B /#(#_#:#<.B B B B B B B B B B B z I *+'@.   ",
"  { K@R B B B B B B B B B B B B B C $.i+a E  #=.I <#[#}#|#1#2#*#3#-#;#Y@Y@H@4#4@B B C A.5#:#<.B B B B B B B B B B B B z W.f.#.& ",
"  { #+<.B B B B B B B B B B B B B C J h { a E  #=.6#7#8#9#0#a#*#b#c#d#e#e#f#g#h#B B C A.5#:#<.B B B B z C C C C z B B B C B.K.n@",
"  & # <.B B B B B B B B B B B B B C ).i#~ { a i#/ j#k#l#m#n#o#*#p#c#q#r#s#t#u#< B B C A.5#:#<.B B B B m &.=.*.O C B B B z v#w#l.",
"    ;.8 B z m z B B B B B B B B B C *./ v.o@] ] h x#y#z#A#B#C#D#E#F#G#H#I#J#K#L#B z I J 5#:#<.B B B B z C 3.V *.C B B B C =.f.+ ",
"    ) Z+8 7 o I C z B B B B B B z I r M#N#m.O#h ! P#y#Q#R#Q#S#T#U#V#W#X#X#J#Y#Z#C I q `#+ K@G B B B B B m &.*.*.W.C z B C =.D.#+",
"    { + G+G.J.).=.I z B B B B A n O d :.:.z. # $9 .$y#Q++$@$#$$$%$%$&$X#X#J#*$=$A.J `#-$N#T m B B B B B z C I =.*.O C B C &.C.:#",
"    { ,@;${ a E  #=.I C C z B z F >$:.L@,$'$V I z )$y#Q+!$@$#$~${$]$^$X#X#J#Y#s@!.M.K.. # /$z B B B B B B B z I =.O C z C C 8 :#",
"    { l.($! a.h i#/ ).*.=.I z H _$n.# :$<$( =.C B )$y#[$Q+Q##$}$|$1$2$X#X#J#K#5 C.3$k.4$@ 8 A B B B B B B B B z C C z I &.C <.:#",
"    . '@3+9 0.g.&+D+i#U  #=.,.D 5$+ L@_$r _ I z B )$y#6$7$Q##$~$8$9$0$X#X#J#a$b$c$[.+ ,@d$<.B B B B B B B B B B B z I =.D 7 >./.",
"  & #.f.W.z z <.0.n.] h i#q.f z.y.L@T T.( *.C B B )$y#6$e$@$#$$$f$9$0$g$h$i$a$j$k$E.S.m+:#8 C C C C C C C C C C C I D A.l$g.# `@",
"  . m.[.C B B B z Y+n.a.] ] ^ K.m$n$o$p$( =.C B B )$y#@$@$@$#$$$f$9$0$q$r$s$a$< M r E ($@ - [.$.$.$.$.J A.A.A.A.A.J z.y.+ . ;$J@",
"& #.J.V C B B B B z <.0.n.) . ($t$u$_$r =.I z B B )$y#@$@$@$#$$$v$w$x$y$z$A$a$b$V.T./ R.,@$+] ] ] ^ R.+ :.M.!.!.M.B$4+l.C$  & { ",
"& D$`#).C B B B B B B z <.Z+# n.E$F$<$G$I z B B B )$y#Q#@$@$#$$$%$V#&$X#H$J#a$L#m < / ^ o@] ] ] ^ m@K.y.3+7 <.8 D.J `#-.o@&     ",
"  { h J C B B B B B B B B <.K@I$o$P O I z B B B B U.J$K$Q#Q##$$$%$%$&$X#L$M$N$z E+P / ] ] O$U U f J A.P$I z B m &.*. #J.Q${     ",
"    h J C B B B B B B B B <.d$L@X T.o C B B B B B B p$R$S$T$#$U$V$V$W$W$X$Y$B B C r g ] h U '.=.I C C C z B B z C I =. #`#~     ",
"  Z$g ).C B B B B B B B z Y+G++ `$'#3.C z B B B B B B n  %.%+%+%+%+%@%#%$%z z C I J %%h E ).=.I z B B B B B B B B z I V / S {   ",
"& m@&%=.C B B B B B B z F+K@K.# M.*%f.D I z B B B B B B B =%-%-%;%;%[ C C C I D J g >%E q I C z B B B B B B B B B B C *.'$(+Q   ",
"{ K.J I z B B B B B B <.g.m.z./+0.K@D+E q I C z B B z m z B B B z C I O =.s.=.J %.,%d q I z B B B B B B B B B B B B C =.'.f ]   ",
"{ K.A.C B B B B B B z >.|+0 D I z 2.n.h g J D I C z C &.C B B B m &.=.O I C H '%)%!%~%I z B B B B B B B B B B B B B z I V q.]   ",
"{ K.A.C B B B B B z {%]%0 q I z B z Y+g.&+D+`#A.=.I I =.C B B B z C I ^%8 <.2.!.(.G m z B B B B B B B B B B B B B B B C =./ h   ",
"{ *%P$I z B z <.8 >.]%0 q I z B B B z <.0.p@*%y./%=.=.s.C B B B z I =.(%_%#+K@(.:%l A B B B B B B B B B B B B B B B B z I ).i#~ ",
"Q <%^% .n z 7 g.9.[%0 q I z B B B B B B z <.2.!.w#'%C.8.z B B z I q 0 k.}%|%1%<.m A B B B B B B B B B B B B B B B B B B C *.q.] ",
"a.2%3%4%` 5% $6%g J D I z B B B B B B B B B z ~.2+l+l+2+2.<.<.7 /+g h ^ 5@Y+m A B B B B B B B B B B B B B B B B B B B B C *.q.] ",
"$ < l 7%< O 8%J q I C z B B B B z C C C z B B z R <.2.2+l+l+!.M.+ ] ^ K B.n B B B B B B B B B B B B B B B B B B B B B B C *.q.] ",
"Q 6 m <.I 9%0%a%I z B B B B B B C O *.O C B B B B z H 7 C.D.b%c%D$. #+B.I z B B B B B B B B B B B B B B B B B B B B B z I _ / ] ",
"% d%8 e%y E+f%s.I z B B B B B B C *.'.*.C B B B B m &.=.q O ; g%n@] d 3.z B B B B B B B B B B B B B B B B B B B B B z I =.D h%i%",
"{ |%Y+7 j%n F V =.I z B B B B B C O V *.C B B B B z C ,.D k%Z Q n@m@&%=.I z B B B B B B B B B B B B B B B B B B B B m &.O ^%} Q ",
"& ,@L@l$l%y F m%( =.I C z B B B z C I &.C B B B z C I n%..S a.$+,@K.`#.#D I C z B B B B B B B B B B B B B B B B B B z C C m 5 Q ",
"  & . Y l$m m F T.r _ =.I C z B B B z m z z C C I O D ..o%. m$p%g.@ :.y.d r O I C C C z B B B B B B B z C C C z B B B B A m 5 Q ",
"      . m$q%z m V.P r ( _ =.I C /#p.p.B z I D [.m%r%..o%  Q >.m 8 >.s%L@:.`$r *.*.*.=.I C C C C C C C I O D o n z z z z m F 3 % ",
"        . m$q%E+m l F P r ( q p t%u%v%w%8./+`#x%`$..o%    ) y%8 F z%5 :$L@L@A%q *.*.*.=.s.=.*.*.*.*.*._ r <$_$X 5 5 5 5 5 3 2   ",
"          . m$Z+/$< 7 9 ; ; - - _$< h#T L@K.m@l.($Q       { Q a.a.$ ' Z B%&+n.C%9 7 H C H D%f q.q.q.q./ h%t |%+ $ Q Q Q Q %     ",
"            { Q ) $ a.$ $ # /./.# $ Q % { { { { &                     ] &+E%Q Q ;.(.R B R !.Q ] ] ] ] ] i%% { &                 "};
