/* XPM */
static char * collectible2_xpm[] = {
"64 64 622 2",
"  	c #1D212C",
". 	c #1F232E",
"+ 	c #272C38",
"@ 	c #282E39",
"# 	c #282D39",
"$ 	c #242832",
"% 	c #222731",
"& 	c #1D212D",
"* 	c #252B36",
"= 	c #434A51",
"- 	c #484F56",
"; 	c #484F55",
"> 	c #484F54",
", 	c #434B50",
"' 	c #282D36",
") 	c #232832",
"! 	c #242933",
"~ 	c #212530",
"{ 	c #1E222D",
"] 	c #222631",
"^ 	c #232632",
"/ 	c #424550",
"( 	c #484A55",
"_ 	c #494B56",
": 	c #4E535C",
"< 	c #4E565B",
"[ 	c #4A5256",
"} 	c #495155",
"| 	c #474F54",
"1 	c #474E54",
"2 	c #272C35",
"3 	c #444B50",
"4 	c #485055",
"5 	c #495156",
"6 	c #4A5257",
"7 	c #4E565C",
"8 	c #4F575D",
"9 	c #4D555B",
"0 	c #3F424D",
"a 	c #252834",
"b 	c #444C51",
"c 	c #2C313B",
"d 	c #40434E",
"e 	c #444652",
"f 	c #434651",
"g 	c #3E404C",
"h 	c #262935",
"i 	c #4D505B",
"j 	c #4E525D",
"k 	c #6B757C",
"l 	c #545D61",
"m 	c #545D62",
"n 	c #535C61",
"o 	c #4B4F59",
"p 	c #4A4D57",
"q 	c #494C57",
"r 	c #484C56",
"s 	c #4D5359",
"t 	c #444B51",
"u 	c #454C51",
"v 	c #4F575B",
"w 	c #4B5357",
"x 	c #343A42",
"y 	c #4F585D",
"z 	c #555E63",
"A 	c #565E63",
"B 	c #565F64",
"C 	c #545C62",
"D 	c #494D57",
"E 	c #3E414C",
"F 	c #4F575C",
"G 	c #50585E",
"H 	c #535B61",
"I 	c #525A60",
"J 	c #444752",
"K 	c #3D404B",
"L 	c #4C4F5A",
"M 	c #545C61",
"N 	c #51595E",
"O 	c #4A4E58",
"P 	c #4E555A",
"Q 	c #232732",
"R 	c #50595E",
"S 	c #272C36",
"T 	c #464D53",
"U 	c #424450",
"V 	c #484B56",
"W 	c #535B60",
"X 	c #4A5157",
"Y 	c #2B303B",
"Z 	c #434A50",
"` 	c #4F565C",
" .	c #4B5059",
"..	c #434950",
"+.	c #2E323C",
"@.	c #444853",
"#.	c #252A36",
"$.	c #434652",
"%.	c #292D38",
"&.	c #4C505A",
"*.	c #494B57",
"=.	c #4A4D58",
"-.	c #262A36",
";.	c #242934",
">.	c #4A5258",
",.	c #51585F",
"'.	c #474955",
").	c #484A56",
"!.	c #2E333F",
"~.	c #4B545A",
"{.	c #4F555D",
"].	c #4E555B",
"^.	c #454D53",
"/.	c #282E3A",
"(.	c #2E343F",
"_.	c #323844",
":.	c #2B303C",
"<.	c #4F585E",
"[.	c #454853",
"}.	c #586167",
"|.	c #69747B",
"1.	c #333945",
"2.	c #4A5359",
"3.	c #50575E",
"4.	c #272B35",
"5.	c #50545F",
"6.	c #717C83",
"7.	c #303542",
"8.	c #4E565D",
"9.	c #282D37",
"0.	c #495158",
"a.	c #242833",
"b.	c #555E62",
"c.	c #4F535E",
"d.	c #6B757D",
"e.	c #2E3440",
"f.	c #40444F",
"g.	c #2A2F39",
"h.	c #545D63",
"i.	c #4A4C58",
"j.	c #484B57",
"k.	c #282C39",
"l.	c #232734",
"m.	c #2A2E3B",
"n.	c #525B60",
"o.	c #4E655B",
"p.	c #378340",
"q.	c #2E8E36",
"r.	c #42744D",
"s.	c #51625F",
"t.	c #292E38",
"u.	c #6D787F",
"v.	c #5B6469",
"w.	c #414450",
"x.	c #222633",
"y.	c #384C46",
"z.	c #31713B",
"A.	c #35BC36",
"B.	c #51D84D",
"C.	c #52B14E",
"D.	c #51AE4D",
"E.	c #52AE4E",
"F.	c #55BF50",
"G.	c #44D143",
"H.	c #35A13A",
"I.	c #3B7346",
"J.	c #525D60",
"K.	c #4B4E59",
"L.	c #727D84",
"M.	c #5C656A",
"N.	c #232733",
"O.	c #212532",
"P.	c #1F242F",
"Q.	c #253036",
"R.	c #299C2E",
"S.	c #50DF4B",
"T.	c #5EC458",
"U.	c #537251",
"V.	c #5E605E",
"W.	c #909090",
"X.	c #7B7B7B",
"Y.	c #5A635A",
"Z.	c #538151",
"`.	c #5BDE54",
" +	c #4AD746",
".+	c #307639",
"++	c #434751",
"@+	c #484C57",
"#+	c #606972",
"$+	c #272C37",
"%+	c #6D787E",
"&+	c #5A6368",
"*+	c #3F414D",
"=+	c #272B38",
"-+	c #253B33",
";+	c #2FA433",
">+	c #5FE057",
",+	c #546F53",
"'+	c #5E5F5E",
")+	c #777777",
"!+	c #8B8B8B",
"~+	c #9D9D9D",
"{+	c #AAAAAA",
"]+	c #686868",
"^+	c #828282",
"/+	c #5F605E",
"(+	c #599955",
"_+	c #4FE04A",
":+	c #1F6928",
"<+	c #272B37",
"[+	c #4D545A",
"}+	c #50585C",
"|+	c #50585D",
"1+	c #525960",
"2+	c #2B2F3C",
"3+	c #3D6A49",
"4+	c #46D843",
"5+	c #5EC457",
"6+	c #5D5C5D",
"7+	c #818181",
"8+	c #7A7A7A",
"9+	c #545454",
"0+	c #919191",
"a+	c #797979",
"b+	c #565656",
"c+	c #9C9C9C",
"d+	c #868686",
"e+	c #5C6C5B",
"f+	c #67F15E",
"g+	c #1EA223",
"h+	c #242733",
"i+	c #232833",
"j+	c #3F434D",
"k+	c #282C36",
"l+	c #424751",
"m+	c #426F4E",
"n+	c #49D745",
"o+	c #5FC658",
"p+	c #5D5E5D",
"q+	c #838383",
"r+	c #7F7F7F",
"s+	c #575757",
"t+	c #484848",
"u+	c #6C6C6C",
"v+	c #939393",
"w+	c #596D58",
"x+	c #69F260",
"y+	c #24A428",
"z+	c #454954",
"A+	c #464C54",
"B+	c #272B36",
"C+	c #444751",
"D+	c #4F565B",
"E+	c #4E575D",
"F+	c #2B3039",
"G+	c #2B303A",
"H+	c #2B313B",
"I+	c #2F3440",
"J+	c #424651",
"K+	c #2A2F3B",
"L+	c #416351",
"M+	c #5EC65C",
"N+	c #78F36D",
"O+	c #599854",
"P+	c #637B62",
"Q+	c #7E7E7E",
"R+	c #959595",
"S+	c #717571",
"T+	c #5A7D58",
"U+	c #61BF5A",
"V+	c #84F37C",
"W+	c #297338",
"X+	c #232631",
"Y+	c #434550",
"Z+	c #2E333C",
"`+	c #2F3540",
" @	c #232834",
".@	c #2A303A",
"+@	c #416052",
"@@	c #28C229",
"#@	c #78FE69",
"$@	c #9FFB90",
"%@	c #62E25A",
"&@	c #5CA857",
"*@	c #5D605D",
"=@	c #5D725B",
"-@	c #5DBD57",
";@	c #7DF471",
">@	c #9AF58D",
",@	c #46C657",
"'@	c #166030",
")@	c #272A36",
"!@	c #555D62",
"~@	c #4B5359",
"{@	c #464954",
"]@	c #252A35",
"^@	c #2E343E",
"/@	c #555E64",
"(@	c #27C228",
"_@	c #3AFE2F",
":@	c #4AFE3E",
"<@	c #B3FEAF",
"[@	c #9BFB96",
"}@	c #92EE8C",
"|@	c #8FED88",
"1@	c #8BED83",
"2@	c #84F178",
"3@	c #86EB7A",
"4@	c #5CC957",
"5@	c #17A61D",
"6@	c #1CB236",
"7@	c #424650",
"8@	c #4A5259",
"9@	c #495157",
"0@	c #79858B",
"a@	c #38FE2D",
"b@	c #36F22B",
"c@	c #60FB58",
"d@	c #69EF62",
"e@	c #5BDD53",
"f@	c #55D94B",
"g@	c #4CD640",
"h@	c #20B020",
"i@	c #089E0F",
"j@	c #0AA012",
"k@	c #222733",
"l@	c #2A2E3A",
"m@	c #414550",
"n@	c #2A2F38",
"o@	c #2F343E",
"p@	c #78838A",
"q@	c #7A868C",
"r@	c #416051",
"s@	c #37FA2C",
"t@	c #276023",
"u@	c #286B24",
"v@	c #34F629",
"w@	c #2AE81F",
"x@	c #19CF0F",
"y@	c #16CA0C",
"z@	c #14C40B",
"A@	c #0BA80E",
"B@	c #099F10",
"C@	c #282C37",
"D@	c #41454F",
"E@	c #4B505A",
"F@	c #606A6F",
"G@	c #405F51",
"H@	c #26C228",
"I@	c #276624",
"J@	c #223221",
"K@	c #223521",
"L@	c #267222",
"M@	c #29E11E",
"N@	c #262A37",
"O@	c #1E222E",
"P@	c #212632",
"Q@	c #2A3039",
"R@	c #252A34",
"S@	c #282E37",
"T@	c #2E333D",
"U@	c #313540",
"V@	c #6C757D",
"W@	c #778289",
"X@	c #2C9926",
"Y@	c #234221",
"Z@	c #244722",
"`@	c #2B9E25",
" #	c #29E31E",
".#	c #222734",
"+#	c #2D333E",
"@#	c #2C323D",
"##	c #292F38",
"$#	c #68737A",
"%#	c #535A61",
"&#	c #425D52",
"*#	c #29B22A",
"=#	c #37FC2C",
"-#	c #2A7F25",
";#	c #2B8825",
">#	c #34F929",
",#	c #16CA0B",
"'#	c #1DAD36",
")#	c #19582F",
"!#	c #515560",
"~#	c #232835",
"{#	c #464854",
"]#	c #434551",
"^#	c #4A5054",
"/#	c #384E37",
"(#	c #3AC932",
"_#	c #16CA0A",
":#	c #14C40A",
"<#	c #0BA70E",
"[#	c #0A9B12",
"}#	c #2A7438",
"|#	c #282F2C",
"1#	c #596268",
"2#	c #6D777E",
"3#	c #464A54",
"4#	c #2A2D39",
"5#	c #495054",
"6#	c #39393A",
"7#	c #414741",
"8#	c #3F763C",
"9#	c #39D630",
"0#	c #36E32C",
"a#	c #2AE71F",
"b#	c #19CF0E",
"c#	c #16C90A",
"d#	c #0D9A0F",
"e#	c #106B15",
"f#	c #1C321F",
"g#	c #333739",
"h#	c #282A2B",
"i#	c #555D63",
"j#	c #4A4E59",
"k#	c #282D3A",
"l#	c #292F3B",
"m#	c #474C51",
"n#	c #424242",
"o#	c #414B41",
"p#	c #3E623C",
"q#	c #337A2F",
"r#	c #276C23",
"s#	c #24691F",
"t#	c #23661F",
"u#	c #1C401D",
"v#	c #1E201F",
"w#	c #212121",
"x#	c #343539",
"y#	c #444753",
"z#	c #272C39",
"A#	c #292E3A",
"B#	c #40434B",
"C#	c #393939",
"D#	c #4B4B4B",
"E#	c #404140",
"F#	c #303030",
"G#	c #2D2D2D",
"H#	c #2C2C2C",
"I#	c #222222",
"J#	c #1F1F1F",
"K#	c #3D404C",
"L#	c #3B3D46",
"M#	c #5A5A5A",
"N#	c #414141",
"O#	c #4D545B",
"P#	c #2C313D",
"Q#	c #262830",
"R#	c #23711E",
"S#	c #246020",
"T#	c #28292B",
"U#	c #434951",
"V#	c #272D38",
"W#	c #3A3D49",
"X#	c #252830",
"Y#	c #383839",
"Z#	c #464646",
"`#	c #39383A",
" $	c #1EA016",
".$	c #16C10B",
"+$	c #1AA212",
"@$	c #222122",
"#$	c #26272A",
"$$	c #3E414D",
"%$	c #4C535A",
"&$	c #3F424E",
"*$	c #454953",
"=$	c #43484D",
"-$	c #4D4D4D",
";$	c #302F30",
">$	c #1F8419",
",$	c #222123",
"'$	c #1F201F",
")$	c #202221",
"!$	c #333539",
"~$	c #232527",
"{$	c #262A35",
"]$	c #4D555C",
"^$	c #212633",
"/$	c #454B51",
"($	c #454B52",
"_$	c #474A55",
":$	c #1F8519",
"<$	c #202B21",
"[$	c #145917",
"}$	c #165F19",
"|$	c #323B38",
"1$	c #262829",
"2$	c #323743",
"3$	c #2D323E",
"4$	c #4B5258",
"5$	c #262B37",
"6$	c #495056",
"7$	c #454C52",
"8$	c #4C5359",
"9$	c #434343",
"0$	c #202C21",
"a$	c #136216",
"b$	c #146718",
"c$	c #484F57",
"d$	c #1F232F",
"e$	c #3F434E",
"f$	c #23691F",
"g$	c #1F7C1A",
"h$	c #222322",
"i$	c #18421A",
"j$	c #1B401D",
"k$	c #50555F",
"l$	c #292F3A",
"m$	c #2D2E2D",
"n$	c #2B2C2B",
"o$	c #282A2C",
"p$	c #6C767D",
"q$	c #464D55",
"r$	c #2B313C",
"s$	c #41484E",
"t$	c #4D5559",
"u$	c #4D5459",
"v$	c #3E4346",
"w$	c #383838",
"x$	c #2A2B2C",
"y$	c #303336",
"z$	c #40474E",
"A$	c #323840",
"B$	c #404548",
"C$	c #2D2E2F",
"D$	c #3D3D3D",
"E$	c #3F3F3F",
"F$	c #3A3A3A",
"G$	c #323232",
"H$	c #2F2F2F",
"I$	c #2E2E2E",
"J$	c #2B2C2C",
"K$	c #2D2F31",
"L$	c #2C303D",
"M$	c #1E232E",
"N$	c #252936",
"O$	c #495055",
"P$	c #4A5156",
"Q$	c #4B4F58",
"R$	c #333638",
"S$	c #323334",
"T$	c #333333",
"U$	c #333334",
"V$	c #333434",
"W$	c #333637",
"X$	c #404549",
"Y$	c #41474E",
"Z$	c #4B5257",
"`$	c #484E53",
" %	c #474E52",
".%	c #484F53",
"+%	c #50595D",
"@%	c #3D3F4B",
"#%	c #464A55",
"$%	c #292D3A",
"%%	c #222531",
"&%	c #444A51",
"*%	c #272A35",
"=%	c #424551",
"-%	c #2C303C",
";%	c #2A2D38",
">%	c #30343F",
",%	c #495057",
"'%	c #313742",
")%	c #626B73",
"!%	c #4F545E",
"~%	c #4B5259",
"{%	c #31353F",
"]%	c #51595F",
"^%	c #40434F",
"/%	c #41444F",
"(%	c #282D38",
"_%	c #474F55",
":%	c #4A5158",
"<%	c #2C303B",
"[%	c #20242F",
"}%	c #2C313C",
"|%	c #464E54",
"1%	c #4E575C",
"2%	c #50575D",
"3%	c #494E57",
"4%	c #52595F",
"5%	c #2A2E39",
"6%	c #50575C",
"7%	c #4C4F5B",
"8%	c #50555E",
"9%	c #6B747C",
"0%	c #4F525D",
"a%	c #444852",
"b%	c #3B3E4A",
"c%	c #454D52",
"d%	c #363C44",
"e%	c #576066",
"f%	c #2A2F3A",
"g%	c #474D53",
"h%	c #232731",
"i%	c #4B5358",
"j%	c #484E54",
"k%	c #343A43",
"l%	c #494C56",
"m%	c #4A4F58",
"n%	c #262B35",
"o%	c #444C53",
"p%	c #4B535A",
"q%	c #484B55",
"r%	c #454C53",
"s%	c #4F545D",
"t%	c #727D83",
"u%	c #747F85",
"v%	c #596267",
"w%	c #2B2F3A",
"x%	c #485057",
"y%	c #4D565B",
"z%	c #474E56",
"A%	c #4E575B",
"B%	c #40474D",
"C%	c #474F56",
"D%	c #4C545B",
"E%	c #3E454B",
"    . + @ # $ %                                                                                                                 ",
"  & * = - ; > , ' ) ) ) ) ) ) %                   % ) ) ) ) ) ) ) $ ! ! ! ) ~               % ) % { ~ ] ] ] ] ] ] ~             ",
"    ^ / ( _ : < [ } | 1 1 1 | , 2               2 3 | 3 4 5 5 5 6 7 8 8 8 9 0 a         % ' 3 5 b c d e e e e e f g h ~         ",
"    h f i j k l m n o p p q r s t 2           2 u v w x y z z z z A B B B C D E a     2 b [ F m m G H C C C C C I D J K ~       ",
"  ~ g L k M l N z z C C C I O O P t Q     % ' u F m m R z B B B B B B B B z I q E h S T n z z A B B B B B B B B z C I J h       ",
"  ] U V W N m z A B B B B z C C M X Y { ] Z [ F m A B B B B B B B B B B B B z I q / t W A B B B B B B B B B B B B B C D g ~     ",
"  ] U ( ` m A B B B B B B B B B C  ...Q ) X m z A B B B B B B B B B B B B B B z I J +.y B B B B B B B z C C C z z m z I f ]     ",
"  ] U V H A B B B B B B B B B B z I @.#.! 7 A B B B B B B B B B B B B B B B B B C $.%.8 B B B B B B B m &.*.=.I I &.C C J h     ",
"  ] U *.C B B B B B B B B B B B B C J -.;.>.z B B B B B B B B B B B B B B B B B C $.%.8 B B B B B B z C ,.=.'.V V *.C C D g ~   ",
"  ~ g ).C B B z m z B B B B B B B C D d Y !.~.z B B B B B B B B B B B B B B B B C $.%.8 B B B B B B C O =.{.V '.'.*.C z I f ]   ",
"    h J C B B C &.C B B B B B B B z H ].^./.(.R B B B B B B B B B B B B B B B B C $.%.8 B B B B B B C O *.V '.'.'.*.C B C $.]   ",
"    ] e C B z I =.C B B B B B B B B z N y _.:.<.B B B B B B B B B B B B B B B B C $.%.8 B B B B B B z C I V '.V V *.C B C [.]   ",
"    ] e C B C =.*.C B B B B B B B B z n }.|.1.2.z B B B B B B B B B B B B B B B C $.%.8 B B B B B B B B C *.V 3.I &.C B z 9 )   ",
"    4.[.C z I V *.C B B B B B B B B m &.5.6.7.!.8.C z B B B B B B B B B B B B B C $.9.0.z B B B B B B B C O *.&.C m z B B 8 a.  ",
"  ] , < b.m &.'.*.C B B B B B B B B z I c.d.e.+ f.=.I z B B B B B B B B B B B B C $.Q g.h.B B B B B B B z C C C z B B B A 7 $   ",
"  ' [ m A z I *.=.C B B B B B B B B B C i.j.k.l.m.0 q n.o.p.q.q.q.q.r.s.B B B z I f ] t.u.v.B B B B B B B B B B B B B B z 6 Q   ",
"] 3 F z B B C &.I z B B B B B B B B B C *.w.^ . x.-.y.z.A.B.C.D.E.F.G.H.I.J.C I K.V Q g.L.M.B B B B B B B B B B B B B B z [ '   ",
"Q 5 m A B B z m z B B B B B B B B B B C *.U N.O.P.Q.R.S.T.U.V.W.X.Y.Z.`. +.+++J @+#+$+t.%+&+z A B B B B B B B B B B B B z v 3 ] ",
"Q 5 z B B B B B B B B B B B B B B B B C V *+=+# -+;+>+,+'+)+!+~+{+]+^+/+(+_+:+<+k.:.. $ [+}+|+z B B B B B B B B B B B B z v 3 % ",
"Q 5 z B B B B B B B B B B B B B B B z 1+w.2+!.2.3+4+5+6+7+8+9+0+a+b+c+d+e+f+g++ h+i+{ ~ j+s F z B B B B B B B B B B B B z [ k+  ",
"Q 5 m A B z <.8 8 8 8 <.R z B B B z I l+2+!.~.z m+n+o+p+q+r+s+t+t+u+v+r+w+x+y+z+f A+B+{ h C+D+z B B B B B B B B B B B B z 5 Q   ",
"% 3 F m z E+F+g.G+G+H+(.I+2.<.<.<.7 J+K+# 2.z B L+M+N+O+P+)+Q+8+8+R+S+T+U+V+W+I O q *+a X+Y+D+z B B B B B B B B B B B A m 5 Q   ",
"  2 3 5 5 u Z+0.8 8 8 2.I+`+`+!.!.(.+  @.@<.B B +@@@#@$@%@&@*@6+6+=@-@;@>@,@'@z C I q g )@0 [+!@B B B B B B B B B B B z F 3 %   ",
"    ] Q a.Z+~@z B B B z R <.7 {@{@- ]@^@<./@B B +@(@_@:@<@[@}@|@1@2@3@4@5@6@'@B B z I e <+m.7@1+z B B B B B B B B B A m [ k+    ",
"      { 9.8@h.m z B B B B B z C H 9@^@u.0@v.B B +@(@a@b@b@c@d@e@f@g@h@i@j@6@'@B B B C $.N.k@l@m@9 y n z B B B A z z m F 3 %     ",
"    { 9.8@h.I &.C B B B B B B B <.n@o@p@q@v.B B r@(@s@t@u@v@w@x@y@z@A@B@j@6@'@B B B C e ^ & { ] i+C@D@9 8 8 y n F [ 5 3 2       ",
"    Q 0.h.I =.*.C B B B B B B z 9 t.E@p@F@B B B G@H@I@J@K@L@M@x@y@z@A@B@j@6@'@B B z I J N@O@O@P@i+! 9.Q@g.R@S@b 3 k+Q %         ",
"  { T@R C =.'.*.C B B B B B B C z+U@V@W@v.B B B G@H@X@Y@Z@`@ #x@y@z@A@B@j@6@'@B B C o @+# .# @+#>.8 8 8 >.@#R@t.##! ] ~ {       ",
"  9.$#&+C *.V O C B B B B B B C D e i c.%#C z B &#*#=#-#;#>#w@x@,#z@A@B@j@'#)#B B C !#d.e.~#+#~.z B B B z R 8 8 8 9 [.g #.O@    ",
"  t.u.v.C &.I C z B B B B B B z I =.{#]#).=.I z ^#/#(#=#=#>#w@x@_#:#<#i@[#}#|#B B z 1#2#e./.2.z B B B B B B B B B z I 3#2+k@&   ",
"  a.E+B z m z B B B B B B B B B z I J 4#E {#=.I 5#6#7#8#9#0#a#b#c#z@d#e#f#g#h#B B B i#j#k#l#<.B B B B B B B B B B B z I l+l@.   ",
"  { +#R B B B B B B B B B B B B B C $.X+a E {#=.m#6#n#n#o#p#q#r#s#t#u#v#w#x#h#B B B C y#z#l#<.B B B B B B B B B B B B z 1+f.#.& ",
"  { A#<.B B B B B B B B B B B B B C J h { a E {#B#C#n#D#n#E#C#F#G#H#I#J#w#x#h#B B B C y#z#l#<.B B B B z C C C C z B B B C {@=+O@",
"  & # <.B B B B B B B B B B B B B C ).K#~ { a K#L#C#n#M#n#N#C#F#G#H#I#J#w#x#h#B B B C y#z#l#<.B B B B m &.=.*.O C B B B z O#P#l.",
"    ;.8 B z m z B B B B B B B B B C *./ N.P@] ] Q#C#n#M#n#N#C#I@R#S#I#J#w#x#T#z B z I J z#l#<.B B B B z C 3.V *.C B B B C =.f.+ ",
"    ) 9@8 7 o I C z B B B B B B z I r U#V#m.W#h X#Y#n#Z#n#N#`# $.$+$@$J#w#x##$1+C I q $$+ +#G B B B B B m &.*.*.1+C z B C =.%$A#",
"    { + ]@$+*+).=.I z B B B B A n O d :.:.&${#*$=$C#n#-$n#N#C#;$>$+$,$'$)$!$~$m@y#J $${$V#T m B B B B B z C I =.*.O C B C &.]$l#",
"    { k@^${ a E {#=.I C C z B z F /$:.@#($_$V I 5#6#n#Z#n#N#C#F#:$+$<$[$}$|$1$2$!.3$=+. # 4$z B B B B B B B z I =.O C z C C 8 l#",
"    { l.5$! a.h K#/ ).*.=.I z H 6$t.# 7$8$( =.C ^#6#9$9$9$N#C#F#:$+$0$a$b$|$T#G ]$c$k.d$@ 8 A B B B B B B B B z C C z I &.C <.l#",
"    . l@J+9 0.g.k+)@K#U {#=.,.D e$+ @#6$r _ I z ^#6#9$9$9$N#C#F#f$g$h$i$j$!$h#i#k$[.+ k@l$<.B B B B B B B B B B B z I =.D 7 >./.",
"  & #.f.1+z z <.0.t.] h K#w.f &$2+@#T [+( *.C B ^#6#n#9$9$N#C#F#m$n$I#J#w#!$o$&+p$@+<+ @l#8 C C C C C C C C C C C I D y#q$g.# ~#",
"  . m.[.C B B B z 8@t.a.] ] ^ =+r$s$t$u$( =.C B z v$w$n#n#N#C#F#G#H#I#I#x$y$u$B M r E 5$@ - [.$.$.$.$.J y#y#y#y#y#J &$2++ . ^$.#",
"& #.*+V C B B B B z <.0.t.) . 5$z$A$6$r =.I z B B z B$C$D$E$F$G$H$I$H#J$K$w B z |+[+/ h+k@i+] ] ] ^ h++ :.3$!.!.3$L$K+l.M$  & { ",
"& N$$$).C B B B B B B z <.9@# t.O$P$8$Q$I z B B B B B W R$S$T$U$U$V$W$X$z B B A m < / ^ P@] ] ] ^ N@=+2+J+7 <.8 %$J $$-.P@&     ",
"  { h J C B B B B B B B B <.+#Y$t$P O I z B B B B B B B z Z$`$`$ %.%+%B B B B B !@P / ] ] @%U U f J y##%I z B m &.*.{#*+$%{     ",
"    h J C B B B B B B B B <.l$@#X [+o C B B B B B B B B B B B B B B B B B B B B C r g ] h U '.=.I C C C z B B z C I =.{#$$~     ",
"  %%g ).C B B B B B B B z 8@]@+ &%3#3.C z B B B B B B B B B B B B B B B B B z C I J *%h E ).=.I z B B B B B B B B z I V / S {   ",
"& N@=%=.C B B B B B B z ~@+#=+# 3$-%f.D I z B B B B B B B B B B B B z C C C I D J g ;%E q I C z B B B B B B B B B B C *._$A+Q   ",
"{ =+J I z B B B B B B <.g.m.&$z+0.+#)@E q I C z B B z m z B B B z C I O =.K.=.J %.>%d q I z B B B B B B B B B B B B C =.'.f ]   ",
"{ =+y#C B B B B B B z >.G+0 D I z 2.t.h g J D I C z C &.C B B B m &.=.O I C H ,%'%)%!%I z B B B B B B B B B B B B B z I V w.]   ",
"{ =+y#C B B B B B z ~%{%0 q I z B z 8@g.k+)@$$y#=.I I =.C B B B z C I ]%8 <.2.!.(.G m z B B B B B B B B B B B B B B B C =./ h   ",
"{ -%#%I z B z <.8 >.{%0 q I z B B B z <.0.Q@-%2+^%=.=.K.C B B B z I =./%(%A#+#(._%l A B B B B B B B B B B B B B B B B z I ).K#~ ",
"Q :%]% .n z 7 g.9.<%0 q I z B B B B B B z <.2.!.P#,%]$8.z B B z I q 0 k.[%}%|%<.m A B B B B B B B B B B B B B B B B B B C *.w.] ",
"a.1%2%3%` 4%*$5%g J D I z B B B B B B B B B z ~.I+`+`+I+2.<.<.7 z+g h ^ C@8@m A B B B B B B B B B B B B B B B B B B B B C *.w.] ",
"$ < l 6%< O 7%J q I C z B B B B z C C C z B B z R <.2.I+`+`+!.3$+ ] ^ K {@n B B B B B B B B B B B B B B B B B B B B B B C *.w.] ",
"Q 6 m <.I 8%9%0%I z B B B B B B C O *.O C B B B B z H 7 ]$%$a%b%N$. A#{@I z B B B B B B B B B B B B B B B B B B B B B z I _ / ] ",
"% c%8 d%y !@e%K.I z B B B B B B C *.'.*.C B B B B m &.=.q O ; f%O@] d 3.z B B B B B B B B B B B B B B B B B B B B B z I =.D g%h%",
"{ }%8@7 i%n F V =.I z B B B B B C O V *.C B B B B z C ,.D j%Z Q O@N@=%=.I z B B B B B B B B B B B B B B B B B B B B m &.O ]%} Q ",
"& k@@#q$k%y F l%( =.I C z B B B z C I &.C B B B z C I m%..S a.i+k@=+$$]#D I C z B B B B B B B B B B B B B B B B B B z C C m 5 Q ",
"  & . Y q$m m F [+r _ =.I C z B B B z m z z C C I O D ..n%. r$o%g.@ :.2+d r O I C C C z B B B B B B B z C C C z B B B B A m 5 Q ",
"      . r$p%z m |+P r ( _ =.I C i#v.v.B z I D [.l%q%..n%  Q >.m 8 >.r%@#:.&%r *.*.*.=.I C C C C C C C I O D o n z z z z m F 3 % ",
"        . r$p%!@m l F P r ( q p s%t%u%v%8.z+$$w%&%..n%    ) x%8 F y%5 7$@#@#z%q *.*.*.=.K.=.*.*.*.*.*._ r 8$6$X 5 5 5 5 5 3 2   ",
"          . r$9@4$< 7 9 ; ; - - 6$< A%T @#=+N@l.5$Q       { Q a.a.$ ' Z B%k+t.C%9 7 H C H D%f w.w.w.w./ g%t }%+ $ Q Q Q Q %     ",
"            { Q ) $ a.$ $ # /./.# $ Q % { { { { &                     ] k+E%Q Q ;.(.R B R !.Q ] ] ] ] ] h%% { &                 "};
