/* XPM */
static char * explosion12_xpm[] = {
"64 64 548 2",
"  	c #1D212C",
". 	c #1F232E",
"+ 	c #272C38",
"@ 	c #282E39",
"# 	c #282D39",
"$ 	c #242832",
"% 	c #222731",
"& 	c #1D212D",
"* 	c #252B36",
"= 	c #434A51",
"- 	c #484F56",
"; 	c #484F55",
"> 	c #484F54",
", 	c #434B50",
"' 	c #282D36",
") 	c #232832",
"! 	c #1E212C",
"~ 	c #242933",
"{ 	c #212530",
"] 	c #1E222D",
"^ 	c #222631",
"/ 	c #232632",
"( 	c #424550",
"_ 	c #484A55",
": 	c #494B56",
"< 	c #4E535C",
"[ 	c #4E565B",
"} 	c #4A5256",
"| 	c #495155",
"1 	c #474F54",
"2 	c #474E54",
"3 	c #272C35",
"4 	c #302C33",
"5 	c #4B484A",
"6 	c #444B50",
"7 	c #485055",
"8 	c #495156",
"9 	c #4A5257",
"0 	c #4E565C",
"a 	c #4F575D",
"b 	c #4D555B",
"c 	c #3F424D",
"d 	c #252834",
"e 	c #232731",
"f 	c #444C51",
"g 	c #2C313B",
"h 	c #40434E",
"i 	c #444652",
"j 	c #434651",
"k 	c #3E404C",
"l 	c #262935",
"m 	c #4D505B",
"n 	c #4E525D",
"o 	c #6B757C",
"p 	c #545D61",
"q 	c #545D62",
"r 	c #535C61",
"s 	c #4D4E57",
"t 	c #4F4A51",
"u 	c #4B4C55",
"v 	c #494C57",
"w 	c #494B55",
"x 	c #525052",
"y 	c #454B50",
"z 	c #2A232A",
"A 	c #322F36",
"B 	c #5B4A47",
"C 	c #565150",
"D 	c #4B5357",
"E 	c #343A42",
"F 	c #4F585D",
"G 	c #555E63",
"H 	c #565E63",
"I 	c #565F64",
"J 	c #545C62",
"K 	c #494D57",
"L 	c #3E414C",
"M 	c #4F575C",
"N 	c #58595C",
"O 	c #5A5758",
"P 	c #51585D",
"Q 	c #535B61",
"R 	c #525A60",
"S 	c #444752",
"T 	c #3D404B",
"U 	c #4C4F5A",
"V 	c #545C61",
"W 	c #52585C",
"X 	c #565C61",
"Y 	c #5B5858",
"Z 	c #5A5658",
"` 	c #6A463E",
" .	c #5A5557",
"..	c #4F4B53",
"+.	c #663F38",
"@.	c #545153",
"#.	c #232732",
"$.	c #282932",
"%.	c #2E2E36",
"&.	c #474C51",
"*.	c #545759",
"=.	c #555C60",
"-.	c #50595E",
";.	c #272C36",
">.	c #484B50",
",.	c #60504D",
"'.	c #575B5F",
").	c #575D62",
"!.	c #575D61",
"~.	c #424450",
"{.	c #484B56",
"].	c #535B60",
"^.	c #51595E",
"/.	c #585A5D",
"(.	c #5B595B",
"_.	c #585C60",
":.	c #595B5E",
"<.	c #58585C",
"[.	c #4A5157",
"}.	c #2B303B",
"|.	c #252831",
"1.	c #4E4D4E",
"2.	c #515355",
"3.	c #444B51",
"4.	c #535B5F",
"5.	c #5A5A5C",
"6.	c #565E62",
"7.	c #4F565C",
"8.	c #4B5059",
"9.	c #434950",
"0.	c #2E323C",
"a.	c #444853",
"b.	c #252A36",
"c.	c #434652",
"d.	c #292D38",
"e.	c #4C505A",
"f.	c #494B57",
"g.	c #4A4D58",
"h.	c #575A5D",
"i.	c #544143",
"j.	c #2A2933",
"k.	c #262A36",
"l.	c #242934",
"m.	c #4A5258",
"n.	c #51585F",
"o.	c #474955",
"p.	c #5A5759",
"q.	c #693D35",
"r.	c #473E44",
"s.	c #222530",
"t.	c #232530",
"u.	c #3E404B",
"v.	c #484A56",
"w.	c #2E333F",
"x.	c #4B545A",
"y.	c #4A4E58",
"z.	c #4F555D",
"A.	c #565D62",
"B.	c #575559",
"C.	c #45454F",
"D.	c #1F212B",
"E.	c #2E252A",
"F.	c #342B32",
"G.	c #454651",
"H.	c #4E555B",
"I.	c #454D53",
"J.	c #282E3A",
"K.	c #2E343F",
"L.	c #20212B",
"M.	c #3C2727",
"N.	c #562E28",
"O.	c #504348",
"P.	c #555B60",
"Q.	c #565F63",
"R.	c #323844",
"S.	c #2B303C",
"T.	c #4F585E",
"U.	c #454853",
"V.	c #25222A",
"W.	c #4E2C28",
"X.	c #6C392E",
"Y.	c #674942",
"Z.	c #60514E",
"`.	c #604F4C",
" +	c #586167",
".+	c #69747B",
"++	c #333945",
"@+	c #4A5359",
"#+	c #51575E",
"$+	c #525960",
"%+	c #1E222C",
"&+	c #352C31",
"*+	c #6D392B",
"=+	c #743E2F",
"-+	c #6A504A",
";+	c #5F4F4E",
">+	c #50545F",
",+	c #717C83",
"'+	c #303542",
")+	c #4E565D",
"!+	c #282D37",
"~+	c #495158",
"{+	c #5B5556",
"]+	c #674B43",
"^+	c #585B5F",
"/+	c #242833",
"(+	c #454A4F",
"_+	c #545254",
":+	c #5D5859",
"<+	c #695B5A",
"[+	c #5B4A4B",
"}+	c #554346",
"|+	c #4F535E",
"1+	c #6B757D",
"2+	c #2E3440",
"3+	c #40444F",
"4+	c #575F63",
"5+	c #2A2F39",
"6+	c #545D63",
"7+	c #545B60",
"8+	c #5D5352",
"9+	c #6C463C",
"0+	c #704234",
"a+	c #684B44",
"b+	c #585C5F",
"c+	c #585E61",
"d+	c #5D5150",
"e+	c #574447",
"f+	c #4A4C58",
"g+	c #484B57",
"h+	c #282C39",
"i+	c #232734",
"j+	c #2A2E3B",
"k+	c #615E5F",
"l+	c #292E38",
"m+	c #6D787F",
"n+	c #5E6468",
"o+	c #5F5E60",
"p+	c #595E61",
"q+	c #605352",
"r+	c #694941",
"s+	c #5C5758",
"t+	c #655E5E",
"u+	c #695E5C",
"v+	c #222633",
"w+	c #5B5C5F",
"x+	c #4B4E59",
"y+	c #727D84",
"z+	c #656567",
"A+	c #7B5A51",
"B+	c #6A504B",
"C+	c #585B5E",
"D+	c #665E5D",
"E+	c #6D5E5C",
"F+	c #625E5F",
"G+	c #5C5E61",
"H+	c #4C4C56",
"I+	c #4F474F",
"J+	c #292934",
"K+	c #212532",
"L+	c #1F242F",
"M+	c #2B2F3C",
"N+	c #3F424E",
"O+	c #444753",
"P+	c #464954",
"Q+	c #4D555C",
"R+	c #4C535A",
"S+	c #484C57",
"T+	c #62676E",
"U+	c #342D33",
"V+	c #2D2F38",
"W+	c #6D787E",
"X+	c #5D6468",
"Y+	c #635A59",
"Z+	c #664F4A",
"`+	c #595A5D",
" @	c #4F575B",
".@	c #605E60",
"+@	c #815D53",
"@@	c #6D5E5B",
"#@	c #554E55",
"$@	c #71504C",
"%@	c #3A333A",
"&@	c #292D39",
"*@	c #454D54",
"=@	c #2D323E",
"-@	c #2F3540",
";@	c #282C38",
">@	c #242733",
",@	c #272B37",
"'@	c #393138",
")@	c #512C27",
"!@	c #312B31",
"~@	c #4D545A",
"{@	c #50585C",
"]@	c #585F63",
"^@	c #5A5E61",
"/@	c #52595F",
"(@	c #444550",
"_@	c #37343D",
":@	c #32353F",
"<@	c #292E3A",
"[@	c #272832",
"}@	c #28242B",
"|@	c #242630",
"1@	c #3F434D",
"2@	c #4D5359",
"3@	c #282C36",
"4@	c #424751",
"5@	c #454954",
"6@	c #464C54",
"7@	c #272B36",
"8@	c #444751",
"9@	c #4F565B",
"0@	c #4E575D",
"a@	c #2B3039",
"b@	c #2B303A",
"c@	c #2B313B",
"d@	c #2F3440",
"e@	c #424651",
"f@	c #2A2F3B",
"g@	c #3F414D",
"h@	c #232631",
"i@	c #434550",
"j@	c #454C51",
"k@	c #2E333C",
"l@	c #232834",
"m@	c #50585E",
"n@	c #272A36",
"o@	c #555D62",
"p@	c #4B5359",
"q@	c #252A35",
"r@	c #36363E",
"s@	c #6F5853",
"t@	c #5D5E61",
"u@	c #4C5059",
"v@	c #424650",
"w@	c #4A5259",
"x@	c #495157",
"y@	c #2E343E",
"z@	c #70767B",
"A@	c #877671",
"B@	c #70625F",
"C@	c #675E5D",
"D@	c #54585D",
"E@	c #4A4A55",
"F@	c #4B4D57",
"G@	c #555C62",
"H@	c #645E5E",
"I@	c #232733",
"J@	c #222733",
"K@	c #2A2E3A",
"L@	c #414550",
"M@	c #2A2F38",
"N@	c #2F343E",
"O@	c #78838A",
"P@	c #7B8589",
"Q@	c #6D6362",
"R@	c #5A5355",
"S@	c #5F4341",
"T@	c #5B4141",
"U@	c #55474B",
"V@	c #565A5E",
"W@	c #595E62",
"X@	c #605F60",
"Y@	c #5B5F62",
"Z@	c #5C5F61",
"`@	c #7C5E55",
" #	c #795D56",
".#	c #232833",
"+#	c #282C37",
"@#	c #41454F",
"##	c #4B505A",
"$#	c #616A6F",
"%#	c #524A50",
"&#	c #623E3A",
"*#	c #633E38",
"=#	c #654846",
"-#	c #645253",
";#	c #6B5B58",
">#	c #745E58",
",#	c #575F64",
"'#	c #875D51",
")#	c #755E58",
"!#	c #5B5F61",
"~#	c #6C5E5B",
"{#	c #685E5C",
"]#	c #5F5A5C",
"^#	c #454752",
"/#	c #262A37",
"(#	c #1E222E",
"_#	c #212632",
":#	c #2A3039",
"<#	c #252A34",
"[#	c #282E37",
"}#	c #2E333D",
"|#	c #313540",
"1#	c #6C757D",
"2#	c #778289",
"3#	c #5B6469",
"4#	c #4B4D58",
"5#	c #59585D",
"6#	c #5B5155",
"7#	c #5F5356",
"8#	c #725D57",
"9#	c #715E59",
"0#	c #5A5E62",
"a#	c #4C4F59",
"b#	c #222734",
"c#	c #2D333E",
"d#	c #2C323D",
"e#	c #292F38",
"f#	c #68737A",
"g#	c #5A6368",
"h#	c #535A61",
"i#	c #555C61",
"j#	c #575E63",
"k#	c #515560",
"l#	c #232835",
"m#	c #464854",
"n#	c #434551",
"o#	c #596268",
"p#	c #6D777E",
"q#	c #464A54",
"r#	c #2A2D39",
"s#	c #555D63",
"t#	c #4A4E59",
"u#	c #282D3A",
"v#	c #292F3B",
"w#	c #272C39",
"x#	c #272B38",
"y#	c #3D404C",
"z#	c #4D545B",
"A#	c #2C313D",
"B#	c #424551",
"C#	c #434752",
"D#	c #50575E",
"E#	c #4B4F59",
"F#	c #484C56",
"G#	c #434951",
"H#	c #272D38",
"I#	c #3A3D49",
"J#	c #464A55",
"K#	c #3E414D",
"L#	c #272C37",
"M#	c #454953",
"N#	c #303641",
"O#	c #303541",
"P#	c #262A35",
"Q#	c #464D53",
"R#	c #212633",
"S#	c #454B51",
"T#	c #454B52",
"U#	c #474A55",
"V#	c #4B535A",
"W#	c #323743",
"X#	c #4B5258",
"Y#	c #262B37",
"Z#	c #495056",
"`#	c #454C52",
" $	c #4C5359",
".$	c #484F57",
"+$	c #1F232F",
"@$	c #3F434E",
"#$	c #50555F",
"$$	c #292F3A",
"%$	c #414450",
"&$	c #6C767D",
"*$	c #464D55",
"=$	c #2B313C",
"-$	c #41484E",
";$	c #4D5559",
">$	c #4D5459",
",$	c #40474E",
"'$	c #323840",
")$	c #50585D",
"!$	c #2C303D",
"~$	c #1E232E",
"{$	c #252936",
"]$	c #495055",
"^$	c #4A5156",
"/$	c #4B4F58",
"($	c #41474E",
"_$	c #4E555A",
":$	c #3D3F4B",
"<$	c #292D3A",
"[$	c #222531",
"}$	c #444A51",
"|$	c #272A35",
"1$	c #2C303C",
"2$	c #2A2D38",
"3$	c #30343F",
"4$	c #495057",
"5$	c #313742",
"6$	c #626B73",
"7$	c #4F545E",
"8$	c #4B5259",
"9$	c #31353F",
"0$	c #51595F",
"a$	c #40434F",
"b$	c #41444F",
"c$	c #282D38",
"d$	c #474F55",
"e$	c #4A5158",
"f$	c #2C303B",
"g$	c #20242F",
"h$	c #2C313C",
"i$	c #464E54",
"j$	c #4E575C",
"k$	c #50575D",
"l$	c #494E57",
"m$	c #2A2E39",
"n$	c #50575C",
"o$	c #4C4F5B",
"p$	c #50555E",
"q$	c #6B747C",
"r$	c #4F525D",
"s$	c #444852",
"t$	c #3B3E4A",
"u$	c #454D52",
"v$	c #363C44",
"w$	c #576066",
"x$	c #2A2F3A",
"y$	c #474D53",
"z$	c #4B5358",
"A$	c #484E54",
"B$	c #434A50",
"C$	c #343A43",
"D$	c #494C56",
"E$	c #4A4F58",
"F$	c #262B35",
"G$	c #444C53",
"H$	c #484B55",
"I$	c #454C53",
"J$	c #4A4D57",
"K$	c #4F545D",
"L$	c #727D83",
"M$	c #747F85",
"N$	c #596267",
"O$	c #2B2F3A",
"P$	c #485057",
"Q$	c #4D565B",
"R$	c #474E56",
"S$	c #4E575B",
"T$	c #40474D",
"U$	c #474F56",
"V$	c #4C545B",
"W$	c #3E454B",
"    . + @ # $ %                                                                                                                 ",
"  & * = - ; > , ' ) ) ) ) ) ) %                 ! % ) ) ) ) ) ) ) $ ~ ~ ~ ) {               % ) % ] { ^ ^ ^ ^ ^ ^ {             ",
"    / ( _ : < [ } | 1 2 2 2 1 , 3             ! 4 5 1 6 7 8 8 8 9 0 a a a b c d         e ' 6 8 f g h i i i i i j k l {         ",
"    l j m n o p q r s t u v w x y 3         z A B C D E F G G G G H I I I J K L d     3 f } M N O P Q J J J J J R K S T {       ",
"  { k U o V p W X Y Z `  .R ..+.@.6 #.  ] $.%.&.*.=.q -.G I I I I I I I I G R v L l ;.>.,.'.G ).!.H I I I I I I G J R S l       ",
"  ^ ~.{.].^.p /.(._.!.:.).G V <.=.[.}.] |.1.2.M q H I I I I I I I I I I I I G R v ( 3.4.5.6.I I I I I I I I I I I I J K k {     ",
"  ^ ~._ 7.q H I I I I I I I I I J 8.9.#.) [.q G H I I I I I I I I I I I I I I G R S 0.F I I I I I I I G J J J G G q G R j ^     ",
"  ^ ~.{.Q H I I I I I I I I I I G R a.b.~ 0 H I I I I I I I I I I I I I I I I I J c.d.a I I I I I I I q e.f.g.R R e.J h.i.j.    ",
"  ^ ~.f.J I I I I I I I I I I I I J S k.l.m.G I I I I I I I I I I I I I I I I I J c.d.a I I I I I I G J n.g.o.{.{.f.V p.q.r.s.  ",
"  t.u.v.J I I G q G I I I I I I I J K h }.w.x.G I I I I I I I I I I I I I I I I J c.d.a I I I I I I J y.g.z.{.o.o.f.J A.B.C.^   ",
"D.E.F.G.V I I J e.J I I I I I I I G Q H.I.J.K.-.I I I I I I I I I I I I I I I I J c.d.a I I I I I I J y.f.{.o.o.o.f.J I J c.^   ",
"L.M.N.O.P.Q.H R g.J I I I I I I I I G ^.F R.S.T.I I I I I I I I I I I I I I I I J c.d.a I I I I I I G J R {.o.{.{.f.V I J U.^   ",
"  V.W.X.Y.Z.`.g.f.J I I I I I I I I G r  +.+++@+G I I I I I I I I I I I I I I I J c.d.a I I I I I I I I J f.{.#+$+e.V I G b )   ",
"  %+&+*+=+-+;+: f.J I I I I I I I I q e.>+,+'+w.)+J G I I I I I I I I I I I I I J c.!+~+G I I I I I I I J y.f.e.V {+]+^+I a /+  ",
"  ^ (+_+:+<+[+}+: J I I I I I I I I G R |+1+2++ 3+g.R G I I I I I I I I 4+4+I I J c.#.5+6+I I I I I I I G J 7+8+9+0+a+b+H 0 $   ",
"  ' } p H c+d+e+g.J I I I I I 4+4+I I J f+g+h+i+j+c v R G I I G J J G Q.k+k+I G R j ^ l+m+n+o+p+H I I I I H 6.q+r+s+!.H G 9 #.  ",
"^ 6 M G I Q.J e.R G I I I I 4+t+u+Q.I J f.~./ . v+k.c K R J J J e.y.R V w+w+J R x+{.#.5+y+z+A+B+C+Q.I I I I I I Q.I I I G } '   ",
"#.8 q H I I G q G I I I I I 4+D+E+F+G+V H+I+J+K+L++ M+N+S O+P+Q+R+S S O+S i c.S S+T+U+V+W+X+Y+Z+`+Q.I I I I I I H Q.I I G  @6 ^ ",
"#.8 G I I I I I I I I I I I I I .@+@@@X #@$@%@&@5+*@2+=@w.w.w.-@-@w.w.=@;@>@>@,@h+'@)@!@~@{@P A.H I I I I I I I I I I I G  @6 % ",
"#.8 G I I I I I I I I I I I I I ]@o+^@/@(@_@:@@+T.q -.T.T.T.T.T.T.T.T.@+K.<@# + >@[@}@|@1@2@M G I I I I I I I I I I I I G } 3@  ",
"#.8 q H I G T.a a a a T.-.G I I I G R 4@M+w.x.G I I I I I I I I I I I G -.T.0 5@j 6@7@] l 8@9@G I I I I I I I I I I I I G 8 #.  ",
"% 6 M q G 0@a@5+b@b@c@K.d@@+T.T.T.0 e@f@&@@+G I I I I I I I I I I I I I I I G R y.v g@d h@i@9@G I I I I I I I I I I I H q 8 #.  ",
"  3 6 8 8 j@k@~+a a a @+d@-@-@w.w.K.+ l@b@m@I I I I G q G I I I I I I I I I I G J R v k n@c ~@o@I I I I I I I I I I I G M 6 %   ",
"    ^ #./+k@p@G I I I G -.T.0 P+P+- q@r@s@t@4+I I I J u@R G I I I I I I I I I I I H R i ,@j+v@$+G I I I I I I I I I H q } 3@    ",
"      ] !+w@6+q G I I I I I G J Q x@y@z@A@B@C@Q.Q.A.D@E@F@G@I I I I I I I I I Q.o+H@V c.I@J@K@L@b F r G I I I H G G q M 6 %     ",
"    ] !+w@6+R e.J I I I I I I I T.M@N@O@P@Q@u+Q.6.R@S@T@U@V@W@]@4+I I ]@X@Y@I Z@`@ #_.i / & ] ^ .#+#@#b a a F r M } 8 6 3       ",
"    #.~+6+R g.f.J I I I I I I G b l+##O@$#I I Q.V %#&#*#=#-#;#>#H@4+,#.@'#)#W@!#~#{#]#^#/#(#(#_#.#~ !+:#5+<#[#f 6 3@#.%         ",
"  ] }#-.J g.o.f.J I I I I I I J 5@|#1#2#3#I I I J y.f.4#5#6#7#8#t+4+I G+9#@@0#I I G@a#S+# b#l@c#m.a a a m.d#<#l+e#~ ^ { ]       ",
"  !+f#g#J f.{.y.J I I I I I I J K i m |+h#J G I G J J J G J i#j#4+I I I 4+]@Q.I I J k#1+2+l#c#x.G I I I G -.a a a b U.k b.(#    ",
"  l+m+3#J e.R J G I I I I I I G R g.m#n#v.g.R G I I I I I I I I I I I I I I I I I G o#p#2+J.@+G I I I I I I I I I G R q#M+J@&   ",
"  /+0@I G q G I I I I I I I I I G R S r#L m#g.R G I I I I I I I I I I I I I I I I I s#t#u#v#T.I I I I I I I I I I I G R 4@K@.   ",
"  ] c#-.I I I I I I I I I I I I I J c.h@d L m#g.R G I I I I I I I I I I I I I I I I J O+w#v#T.I I I I I I I I I I I I G $+3+b.& ",
"  ] <@T.I I I I I I I I I I I I I J S l ] d L m#g.R J G I I I I I I I I I I I I I I J O+w#v#T.I I I I G J J J J G I I I J P+x#(#",
"  & # T.I I I I I I I I I I I I I J v.y#{ ] d y#( v.g.$+m@T.T.m@r G I I I I I I I I J O+w#v#T.I I I I q e.g.f.y.J I I I G z#A#i+",
"    l.a I G q G I I I I I I I I I J f.( I@_#^ ^ l k B#3+=@-@-@=@C#R G I G J J G I G R S w#v#T.I I I I G J D#{.f.J I I I J g.3++ ",
"    ) x@a 0 E#R J G I I I I I I G R F#G#H#j+I#l ~ d.=@=@2+@+@+w.M+e@0 T.0 P+J#$+J R v K#+ c#m@I I I I I q e.f.f.$+J G I J g.R+<@",
"    ] + q@L#g@v.g.R G I I I I H r y.h S.S.N+m#M#b a T.T.-.G G x.2+c#-@N#-@w.O#L@O+S K#P#H#Q#q I I I I I G J R g.f.y.J I J e.Q+v#",
"    ] J@R#] d L m#g.R J J G I G M S#S.d#T#U#{.R G I I I I I I G -.T.T.T.T.T.V#W#w.=@x#. # X#G I I I I I I I G R g.y.J G J J a v#",
"    ] i+Y#~ /+l y#( v.f.g.R G Q Z#l+# `# $_ g.J I I I I I I I I I I I I I I G m@Q+.$h++$@ a H I I I I I I I I G J J G R e.J T.v#",
"    . K@e@b ~+5+3@n@y#~.m#g.n.K @$+ d#Z#F#: R G I I I I I G q G I I I I I I I s##$U.+ J@$$T.I I I I I I I I I I I G R g.K 0 m.J.",
"  & b.3+$+G G T.~+l+^ l y#%$j N+M+d#Q#~@_ f.J I I I I I I J e.R J G I I I I I g#&$S+,@l@v#a J J J J J J J J J J J R K O+*$5+# l#",
"  . j+U.J I I I G w@l+/+^ ^ / x#=$-$;$>$_ g.J I I I I I G R f.{.y.J I I I I I I V F#L Y#@ - U.c.c.c.c.S O+O+O+O+O+S N+M++ . R#b#",
"& b.g@{.J I I I I G T.~+l+) . Y#,$'$Z#F#g.R G I I I I I J g.o.o.f.J I I I I I G )$~@( >@J@.#^ ^ ^ / >@+ S.=@w.w.=@!$f@i+~$  & ] ",
"& {$K#v.J I I I I I I G T.x@# l+]$^$ $/$R G I I I I I I J y.f.f.y.J I I I I I H q [ ( / _#^ ^ ^ / /#x#M+e@0 T.a R+S K#k._#&     ",
"  ] l S J I I I I I I I I T.c#($;$_$y.R G I I I I I I I G J J J J G I I I I I I o@_$( ^ ^ :$~.~.j S O+J#R G I q e.f.m#g@<$]     ",
"    l S J I I I I I I I I T.$$d#[.~@E#J I I I I I I I I I I I I I I I I I I I I J F#k ^ l ~.o.g.R J J J G I I G J R g.m#K#{     ",
"  [$k v.J I I I I I I I G w@q@+ }$q#D#J G I I I I I I I I I I I I I I I I I G J R S |$l L v.g.R G I I I I I I I I G R {.( ;.]   ",
"& /#B#g.J I I I I I I G p@c#x## =@1$3+K R G I I I I I I I I I I I I G J J J R K S k 2$L v R J G I I I I I I I I I I J f.U#6@#.  ",
"] x#S R G I I I I I I T.5+j+N+5@~+c#n@L v R J G I I G q G I I I G J R y.g.x+g.S d.3$h v R G I I I I I I I I I I I I J g.o.j ^   ",
"] x#O+J I I I I I I G m.b@c K R G @+l+l k S K R J G J e.J I I I q e.g.y.R J Q 4$5$6$7$R G I I I I I I I I I I I I I G R {.%$^   ",
"] x#O+J I I I I I G 8$9$c v R G I G w@5+3@n@K#O+g.R R g.J I I I G J R 0$a T.@+w.K.m@q G I I I I I I I I I I I I I I I J g.( l   ",
"] 1$J#R G I G T.a m.9$c v R G I I I G T.~+:#1$M+a$g.g.x+J I I I G R g.b$c$<@c#K.d$p H I I I I I I I I I I I I I I I I G R v.y#{ ",
"#.e$0$8.r G 0 5+!+f$c v R G I I I I I I G T.@+w.A#4$Q+)+G I I G R v c h+g$h$i$T.q H I I I I I I I I I I I I I I I I I I J f.%$^ ",
"/+j$k$l$7./@M#m$k S K R G I I I I I I I I I G x.d@-@-@d@@+T.T.0 5@k l / +#w@q H I I I I I I I I I I I I I I I I I I I I J f.%$^ ",
"$ [ p n$[ y.o$S v R J G I I I I G J J J G I I G -.T.@+d@-@-@w.=@+ ^ / T P+r I I I I I I I I I I I I I I I I I I I I I I J f.%$^ ",
"#.9 q T.R p$q$r$R G I I I I I I J y.f.y.J I I I I G Q 0 Q+R+s$t${$. <@P+R G I I I I I I I I I I I I I I I I I I I I I G R : ( ^ ",
"% u$a v$F o@w$x+R G I I I I I I J f.o.f.J I I I I q e.g.v y.; x$(#^ h D#G I I I I I I I I I I I I I I I I I I I I I G R g.K y$e ",
"] h$w@0 z$r M {.g.R G I I I I I J y.{.f.J I I I I G J n.K A$B$#.(#/#B#g.R G I I I I I I I I I I I I I I I I I I I I q e.y.0$| #.",
"& J@d#*$C$F M D$_ g.R J G I I I G J R e.J I I I G J R E$9.;./+.#J@x#K#n#K R J G I I I I I I I I I I I I I I I I I I G J J q 8 #.",
"  & . }.*$q q M ~@F#: g.R J G I I I G q G G J J R y.K 9.F$. =$G$5+@ S.M+h F#y.R J J J G I I I I I I I G J J J G I I I I H q 8 #.",
"      . =$V#G q )$_$F#_ : g.R J s#3#3#I G R K U.D$H$9.F$  #.m.q a m.I$d#S.}$F#f.f.f.g.R J J J J J J J R y.K E#r G G G G q M 6 % ",
"        . =$V#o@q p M _$F#_ v J$K$L$M$N$)+5@K#O$}$9.F$    ) P$a M Q$8 `#d#d#R$v f.f.f.g.x+g.f.f.f.f.f.: F# $Z#[.8 8 8 8 8 6 3   ",
"          . =$x@X#[ 0 b ; ; - - Z#[ S$Q#d#x#/#i+Y##.      ] #./+/+$ ' B$T$3@l+U$b 0 Q J Q V$j %$%$%$%$( y$3.h$+ $ #.#.#.#.%     ",
"            ] #.) $ /+$ $ # J.J.# $ #.% ] ] ] ] &                     ^ 3@W$#.#.l.K.-.I -.w.#.^ ^ ^ ^ ^ e % ] &                 "};
