/* XPM */
static char * explosion2_xpm[] = {
"64 64 486 2",
"  	c #1D212C",
". 	c #1F232E",
"+ 	c #272C38",
"@ 	c #282E39",
"# 	c #282D39",
"$ 	c #242832",
"% 	c #222731",
"& 	c #1D212D",
"* 	c #252B36",
"= 	c #434A51",
"- 	c #484F56",
"; 	c #484F55",
"> 	c #484F54",
", 	c #434B50",
"' 	c #282D36",
") 	c #232832",
"! 	c #242933",
"~ 	c #212530",
"{ 	c #1E222D",
"] 	c #222631",
"^ 	c #232632",
"/ 	c #424550",
"( 	c #484A55",
"_ 	c #494B56",
": 	c #4E535C",
"< 	c #4E565B",
"[ 	c #4A5256",
"} 	c #495155",
"| 	c #474F54",
"1 	c #474E54",
"2 	c #272C35",
"3 	c #444B50",
"4 	c #485055",
"5 	c #495156",
"6 	c #4A5257",
"7 	c #4E565C",
"8 	c #4F575D",
"9 	c #4D555B",
"0 	c #3F424D",
"a 	c #252834",
"b 	c #444C51",
"c 	c #2C313B",
"d 	c #40434E",
"e 	c #444652",
"f 	c #434651",
"g 	c #3E404C",
"h 	c #262935",
"i 	c #4D505B",
"j 	c #4E525D",
"k 	c #6B757C",
"l 	c #545D61",
"m 	c #545D62",
"n 	c #535C61",
"o 	c #4B4F59",
"p 	c #4A4D57",
"q 	c #494C57",
"r 	c #484C56",
"s 	c #4D5359",
"t 	c #444B51",
"u 	c #454C51",
"v 	c #4F575B",
"w 	c #4B5357",
"x 	c #343A42",
"y 	c #4F585D",
"z 	c #555E63",
"A 	c #565E63",
"B 	c #565F64",
"C 	c #545C62",
"D 	c #494D57",
"E 	c #3E414C",
"F 	c #4F575C",
"G 	c #50585E",
"H 	c #535B61",
"I 	c #525A60",
"J 	c #444752",
"K 	c #3D404B",
"L 	c #4C4F5A",
"M 	c #545C61",
"N 	c #51595E",
"O 	c #4A4E58",
"P 	c #4E555A",
"Q 	c #232732",
"R 	c #50595E",
"S 	c #272C36",
"T 	c #464D53",
"U 	c #424450",
"V 	c #484B56",
"W 	c #535B60",
"X 	c #4A5157",
"Y 	c #2B303B",
"Z 	c #434A50",
"` 	c #4F565C",
" .	c #4B5059",
"..	c #434950",
"+.	c #2E323C",
"@.	c #444853",
"#.	c #252A36",
"$.	c #434652",
"%.	c #292D38",
"&.	c #4C505A",
"*.	c #494B57",
"=.	c #4A4D58",
"-.	c #262A36",
";.	c #242934",
">.	c #4A5258",
",.	c #51585F",
"'.	c #474955",
").	c #484A56",
"!.	c #2E333F",
"~.	c #4B545A",
"{.	c #4F555D",
"].	c #4E555B",
"^.	c #454D53",
"/.	c #282E3A",
"(.	c #2E343F",
"_.	c #323844",
":.	c #2B303C",
"<.	c #4F585E",
"[.	c #454853",
"}.	c #586167",
"|.	c #69747B",
"1.	c #333945",
"2.	c #4A5359",
"3.	c #50575E",
"4.	c #272B35",
"5.	c #50545F",
"6.	c #717C83",
"7.	c #303542",
"8.	c #4E565D",
"9.	c #282D37",
"0.	c #495158",
"a.	c #242833",
"b.	c #555E62",
"c.	c #4F535E",
"d.	c #6B757D",
"e.	c #2E3440",
"f.	c #40444F",
"g.	c #2A2F39",
"h.	c #545D63",
"i.	c #4A4C58",
"j.	c #484B57",
"k.	c #282C39",
"l.	c #232734",
"m.	c #2A2E3B",
"n.	c #292E38",
"o.	c #6D787F",
"p.	c #5B6469",
"q.	c #414450",
"r.	c #222633",
"s.	c #4B4E59",
"t.	c #727D84",
"u.	c #5C656A",
"v.	c #232733",
"w.	c #212532",
"x.	c #1F242F",
"y.	c #2B2F3C",
"z.	c #3F424E",
"A.	c #444753",
"B.	c #464954",
"C.	c #4D555C",
"D.	c #4C535A",
"E.	c #484C57",
"F.	c #606972",
"G.	c #272C37",
"H.	c #6D787E",
"I.	c #5A6368",
"J.	c #3F414D",
"K.	c #272B38",
"L.	c #454D54",
"M.	c #2D323E",
"N.	c #2F3540",
"O.	c #242733",
"P.	c #272B37",
"Q.	c #4D545A",
"R.	c #50585C",
"S.	c #50585D",
"T.	c #525960",
"U.	c #292E3A",
"V.	c #232833",
"W.	c #3F434D",
"X.	c #282C36",
"Y.	c #424751",
"Z.	c #454954",
"`.	c #464C54",
" +	c #272B36",
".+	c #444751",
"++	c #4F565B",
"@+	c #4E575D",
"#+	c #2B3039",
"$+	c #2B303A",
"%+	c #2B313B",
"&+	c #2F3440",
"*+	c #424651",
"=+	c #2A2F3B",
"-+	c #232631",
";+	c #434550",
">+	c #2E333C",
",+	c #232834",
"'+	c #2A303A",
")+	c #272A36",
"!+	c #555D62",
"~+	c #4B5359",
"{+	c #252A35",
"]+	c #2E343E",
"^+	c #555E64",
"/+	c #424650",
"(+	c #4A5259",
"_+	c #495157",
":+	c #79858B",
"<+	c #222733",
"[+	c #2A2E3A",
"}+	c #414550",
"|+	c #2A2F38",
"1+	c #2F343E",
"2+	c #78838A",
"3+	c #7A868C",
"4+	c #282C37",
"5+	c #41454F",
"6+	c #4B505A",
"7+	c #606A6F",
"8+	c #262A37",
"9+	c #1E222E",
"0+	c #212632",
"a+	c #2A3039",
"b+	c #252A34",
"c+	c #282E37",
"d+	c #2E333D",
"e+	c #313540",
"f+	c #6C757D",
"g+	c #778289",
"h+	c #222734",
"i+	c #2D333E",
"j+	c #2C323D",
"k+	c #292F38",
"l+	c #68737A",
"m+	c #535A61",
"n+	c #515560",
"o+	c #232835",
"p+	c #464854",
"q+	c #434551",
"r+	c #596268",
"s+	c #6D777E",
"t+	c #464A54",
"u+	c #2A2D39",
"v+	c #555D63",
"w+	c #4A4E59",
"x+	c #282D3A",
"y+	c #292F3B",
"z+	c #272C39",
"A+	c #3D404C",
"B+	c #4D545B",
"C+	c #2C313D",
"D+	c #424551",
"E+	c #434752",
"F+	c #434951",
"G+	c #272D38",
"H+	c #3A3D49",
"I+	c #2C303C",
"J+	c #464A55",
"K+	c #3E414D",
"L+	c #454953",
"M+	c #565E62",
"N+	c #4D5459",
"O+	c #30353F",
"P+	c #2F333E",
"Q+	c #303640",
"R+	c #313641",
"S+	c #303540",
"T+	c #303541",
"U+	c #262A35",
"V+	c #212633",
"W+	c #454B51",
"X+	c #454B52",
"Y+	c #474A55",
"Z+	c #565F63",
"`+	c #575F63",
" @	c #62645E",
".@	c #736B56",
"+@	c #716A57",
"@@	c #6C6552",
"#@	c #6D6551",
"$@	c #5C5D58",
"%@	c #51595D",
"&@	c #323743",
"*@	c #4B5258",
"=@	c #262B37",
"-@	c #495056",
";@	c #454C52",
">@	c #4C5359",
",@	c #586062",
"'@	c #5B6161",
")@	c #746B57",
"!@	c #A68140",
"~@	c #CA9030",
"{@	c #E19926",
"]@	c #585F61",
"^@	c #484F57",
"/@	c #1F232F",
"(@	c #3F434E",
"_@	c #596062",
":@	c #6E6959",
"<@	c #AA823E",
"[@	c #E09926",
"}@	c #F5A11C",
"|@	c #FBA31A",
"1@	c #FCA51A",
"2@	c #585F62",
"3@	c #51555E",
"4@	c #292F3A",
"5@	c #85724E",
"6@	c #C58D32",
"7@	c #FAA31A",
"8@	c #FDA419",
"9@	c #FCA519",
"0@	c #FDA519",
"a@	c #FEA619",
"b@	c #FEA519",
"c@	c #887652",
"d@	c #717779",
"e@	c #494C56",
"f@	c #464D55",
"g@	c #2B313C",
"h@	c #41484E",
"i@	c #4D5559",
"j@	c #4B4E58",
"k@	c #89744D",
"l@	c #E69B23",
"m@	c #FCA419",
"n@	c #FEA419",
"o@	c #FFA619",
"p@	c #88724C",
"q@	c #3F414C",
"r@	c #40474E",
"s@	c #323840",
"t@	c #535A60",
"u@	c #6F6958",
"v@	c #D2932C",
"w@	c #FAA41A",
"x@	c #FEA518",
"y@	c #FFA519",
"z@	c #D1912A",
"A@	c #68604F",
"B@	c #2C303D",
"C@	c #1E232E",
"D@	c #252936",
"E@	c #495055",
"F@	c #4A5156",
"G@	c #4B4F58",
"H@	c #5A6061",
"I@	c #AC833D",
"J@	c #F7A31C",
"K@	c #A87E38",
"L@	c #47484F",
"M@	c #41474E",
"N@	c #786D54",
"O@	c #DC9728",
"P@	c #DA9526",
"Q@	c #675844",
"R@	c #252730",
"S@	c #3D3F4B",
"T@	c #292D3A",
"U@	c #555C62",
"V@	c #5A6162",
"W@	c #9D7D44",
"X@	c #FBA41B",
"Y@	c #8F6A35",
"Z@	c #282930",
"`@	c #272A35",
" #	c #222531",
".#	c #444A51",
"+#	c #555D61",
"@#	c #67665C",
"##	c #C28C33",
"$#	c #B17922",
"%#	c #3C3632",
"&#	c #40424C",
"*#	c #4B4E56",
"=#	c #706754",
"-#	c #E29A24",
";#	c #DB921D",
">#	c #605344",
",#	c #4B4D56",
"'#	c #40424B",
")#	c #685B4C",
"!#	c #E29924",
"~#	c #DF9522",
"{#	c #695C4D",
"]#	c #545B5F",
"^#	c #282A35",
"/#	c #5E5142",
"(#	c #E09622",
"_#	c #E19823",
":#	c #706854",
"<#	c #565F62",
"[#	c #4B5259",
"}#	c #31353F",
"|#	c #2C3038",
"1#	c #4C4131",
"2#	c #DA901D",
"3#	c #E29925",
"4#	c #726B57",
"5#	c #576063",
"6#	c #51585D",
"7#	c #5D5B52",
"8#	c #B67E25",
"9#	c #C48D32",
"0#	c #4A5158",
"a#	c #51595F",
"b#	c #2C303B",
"c#	c #596061",
"d#	c #997941",
"e#	c #FAA41B",
"f#	c #9C7C44",
"g#	c #4E575C",
"h#	c #50575D",
"i#	c #494E57",
"j#	c #52595F",
"k#	c #2A2E39",
"l#	c #50575C",
"m#	c #4C4F5B",
"n#	c #F7A21C",
"o#	c #50555E",
"p#	c #6B747C",
"q#	c #4F525D",
"r#	c #FBA41A",
"s#	c #FFA618",
"t#	c #454D52",
"u#	c #363C44",
"v#	c #576066",
"w#	c #8A744C",
"x#	c #E49A25",
"y#	c #474D53",
"z#	c #232731",
"A#	c #2C313C",
"B#	c #4B5358",
"C#	c #5A6062",
"D#	c #84724F",
"E#	c #FDA418",
"F#	c #FCA41A",
"G#	c #343A43",
"H#	c #6C6657",
"I#	c #A57E3D",
"J#	c #E09723",
"K#	c #F5A11B",
"L#	c #FAA319",
"M#	c #E09623",
"N#	c #4D4F57",
"O#	c #515154",
"P#	c #665A45",
"Q#	c #896327",
"R#	c #B77C1F",
"S#	c #DD941F",
"T#	c #E29923",
"U#	c #DE941F",
"V#	c #DC931F",
"W#	c #BB8123",
"X#	c #8C652B",
"Y#	c #635544",
"Z#	c #515054",
"`#	c #4B535A",
" $	c #484B55",
".$	c #44494F",
"+$	c #20232C",
"@$	c #2F2E30",
"#$	c #645E4F",
"$$	c #6B6658",
"%$	c #676254",
"&$	c #655E4F",
"*$	c #4F514F",
"=$	c #464B51",
"-$	c #4F545D",
";$	c #727D83",
">$	c #747F85",
",$	c #596267",
"'$	c #2B2F3A",
")$	c #262B35",
"!$	c #1E222C",
"~$	c #1F222C",
"{$	c #4E565A",
"]$	c #474D52",
"^$	c #474E56",
"/$	c #4E575B",
"($	c #40474D",
"_$	c #474F56",
":$	c #4C545B",
"<$	c #3E454B",
"    . + @ # $ %                                                                                                                 ",
"  & * = - ; > , ' ) ) ) ) ) ) %                   % ) ) ) ) ) ) ) $ ! ! ! ) ~               % ) % { ~ ] ] ] ] ] ] ~             ",
"    ^ / ( _ : < [ } | 1 1 1 | , 2               2 3 | 3 4 5 5 5 6 7 8 8 8 9 0 a         % ' 3 5 b c d e e e e e f g h ~         ",
"    h f i j k l m n o p p q r s t 2           2 u v w x y z z z z A B B B C D E a     2 b [ F m m G H C C C C C I D J K ~       ",
"  ~ g L k M l N z z C C C I O O P t Q     % ' u F m m R z B B B B B B B B z I q E h S T n z z A B B B B B B B B z C I J h       ",
"  ] U V W N m z A B B B B z C C M X Y { ] Z [ F m A B B B B B B B B B B B B z I q / t W A B B B B B B B B B B B B B C D g ~     ",
"  ] U ( ` m A B B B B B B B B B C  ...Q ) X m z A B B B B B B B B B B B B B B z I J +.y B B B B B B B z C C C z z m z I f ]     ",
"  ] U V H A B B B B B B B B B B z I @.#.! 7 A B B B B B B B B B B B B B B B B B C $.%.8 B B B B B B B m &.*.=.I I &.C C J h     ",
"  ] U *.C B B B B B B B B B B B B C J -.;.>.z B B B B B B B B B B B B B B B B B C $.%.8 B B B B B B z C ,.=.'.V V *.C C D g ~   ",
"  ~ g ).C B B z m z B B B B B B B C D d Y !.~.z B B B B B B B B B B B B B B B B C $.%.8 B B B B B B C O =.{.V '.'.*.C z I f ]   ",
"    h J C B B C &.C B B B B B B B z H ].^./.(.R B B B B B B B B B B B B B B B B C $.%.8 B B B B B B C O *.V '.'.'.*.C B C $.]   ",
"    ] e C B z I =.C B B B B B B B B z N y _.:.<.B B B B B B B B B B B B B B B B C $.%.8 B B B B B B z C I V '.V V *.C B C [.]   ",
"    ] e C B C =.*.C B B B B B B B B z n }.|.1.2.z B B B B B B B B B B B B B B B C $.%.8 B B B B B B B B C *.V 3.I &.C B z 9 )   ",
"    4.[.C z I V *.C B B B B B B B B m &.5.6.7.!.8.C z B B B B B B B B B B B B B C $.9.0.z B B B B B B B C O *.&.C m z B B 8 a.  ",
"  ] , < b.m &.'.*.C B B B B B B B B z I c.d.e.+ f.=.I z B B B B B B B B B B B B C $.Q g.h.B B B B B B B z C C C z B B B A 7 $   ",
"  ' [ m A z I *.=.C B B B B B B B B B C i.j.k.l.m.0 q I z B B z C C z B B B B z I f ] n.o.p.B B B B B B B B B B B B B B z 6 Q   ",
"] 3 F z B B C &.I z B B B B B B B B B C *.q.^ . r.-.0 D I C C C &.O I C C C C I s.V Q g.t.u.B B B B B B B B B B B B B B z [ '   ",
"Q 5 m A B B z m z B B B B B B B B B B C *.U v.w.x.+ y.z.J A.B.C.D.J J A.J $.$.J E.F.G.n.H.I.z A B B B B B B B B B B B B z v 3 ] ",
"Q 5 z B B B B B B B B B B B B B B B B C V J.K.# g.L.e.M.!.!.!.N.N.!.!.M.+ O.O.P.k.:.. $ Q.R.S.z B B B B B B B B B B B B z v 3 % ",
"Q 5 z B B B B B B B B B B B B B B B z T.q.y.!.2.<.m R <.<.<.<.<.<.<.<.2.(.U.# + O.V.{ ~ W.s F z B B B B B B B B B B B B z [ X.  ",
"Q 5 m A B z <.8 8 8 8 <.R z B B B z I Y.y.!.~.z B B B B B B B B B B B z R <.7 Z.f `. +{ h .+++z B B B B B B B B B B B B z 5 Q   ",
"% 3 F m z @+#+g.$+$+%+(.&+2.<.<.<.7 *+=+# 2.z B B B B B B B B B B B B B B B z I O q J.a -+;+++z B B B B B B B B B B B A m 5 Q   ",
"  2 3 5 5 u >+0.8 8 8 2.&+N.N.!.!.(.+ ,+'+<.B B B B z m z B B B B B B B B B B z C I q g )+0 Q.!+B B B B B B B B B B B z F 3 %   ",
"    ] Q a.>+~+z B B B z R <.7 B.B.- {+]+<.^+B B B B C &.I z B B B B B B B B B B B z I e P.m./+T.z B B B B B B B B B A m [ X.    ",
"      { 9.(+h.m z B B B B B z C H _+]+o.:+p.B B B z I *.=.C B B B B B B B B B B B B C $.v.<+[+}+9 y n z B B B A z z m F 3 %     ",
"    { 9.(+h.I &.C B B B B B B B <.|+1+2+3+p.B B z I =.'.V I z B B B B B B B B B B B C e ^ & { ] V.4+5+9 8 8 y n F [ 5 3 2       ",
"    Q 0.h.I =.*.C B B B B B B z 9 n.6+2+7+B B B C =.'.'.V =.I z B B B B B B B B B z I J 8+9+9+0+V.! 9.a+g.b+c+b 3 X.Q %         ",
"  { d+R C =.'.*.C B B B B B B C Z.e+f+g+p.B B B C O *.=.,.O &.m B B B B B B B B B C o E.# h+,+i+>.8 8 8 >.j+b+n.k+! ] ~ {       ",
"  9.l+I.C *.V O C B B B B B B C D e i c.m+C z B z C C C z C C z B B B B B B B B B C n+d.e.o+i+~.z B B B z R 8 8 8 9 [.g #.9+    ",
"  n.o.p.C &.I C z B B B B B B z I =.p+q+).=.I z B B B B B B B B B B B B B B B B B z r+s+e./.2.z B B B B B B B B B z I t+y.<+&   ",
"  a.@+B z m z B B B B B B B B B z I J u+E p+=.I z B B B B B B B B B B B B B B B B B v+w+x+y+<.B B B B B B B B B B B z I Y.[+.   ",
"  { i+R B B B B B B B B B B B B B C $.-+a E p+=.I z B B B B B B B B B B B B B B B B C A.z+y+<.B B B B B B B B B B B B z T.f.#.& ",
"  { U.<.B B B B B B B B B B B B B C J h { a E p+=.I C z B B B B B B B B B B B B B B C A.z+y+<.B B B B z C C C C z B B B C B.K.9+",
"  & # <.B B B B B B B B B B B B B C ).A+~ { a A+/ ).=.T.G <.<.G n z B B B B B B B B C A.z+y+<.B B B B m &.=.*.O C B B B z B+C+l.",
"    ;.8 B z m z B B B B B B B B B C *./ v.0+] ] h g D+f.M.N.N.M.E+I z B z C C z B z I J z+y+<.B B B B z C 3.V *.C B B B C =.f.+ ",
"    ) _+8 7 o I C z B B B B B B z I r F+G+m.H+h ! %.M.M.e.~+~+(.I+Y.7 <.7 B.J+T.C I q K++ i+G B B B B B m &.*.*.T.C z B C =.D.U.",
"    { + {+G.J.).=.I z B B B B A n O d :.:.z.p+L+9 8 <.<.N A M+N+O+P+Q+R+S+!.T+}+A.J K+U+G+T m B B B B B z C I =.*.O C B C &.C.y+",
"    { <+V+{ a E p+=.I C C z B z F W+:.j+X+Y+V I z Z+`+B `+ @.@+@@@#@$@%@<.S.~+&@!.M.K.. # *@z B B B B B B B z I =.O C z C C 8 y+",
"    { l.=@! a.h A+/ ).*.=.I z H -@n.# ;@>@( =.C Z+,@'@)@!@~@{@{@{@{@~@!@)@'@]@R C.^@k./@@ 8 A B B B B B B B B z C C z I &.C <.y+",
"    . [+*+9 0.g.X.)+A+U p+=.,.D (@+ j+-@r _ I Z+_@:@<@[@}@|@1@1@1@1@|@}@[@<@:@2@3@[.+ <+4@<.B B B B B B B B B B B z I =.D 7 >./.",
"  & #.f.T.z z <.0.n.] h A+q.f z.y.j+T Q.( *.M '@5@6@7@8@9@0@a@b@b@a@0@9@8@7@6@c@d@e@P.,+y+8 C C C C C C C C C C C I D A.f@g.# o+",
"  . m.[.C B B B z (+n.a.] ] ^ K.g@h@i@N+( j@!+k@l@m@8@n@b@b@o@o@o@o@b@b@n@8@m@l@p@e@q@=@@ - [.$.$.$.$.J A.A.A.A.A.J z.y.+ . V+h+",
"& #.J.V C B B B B z <.0.n.) . =@r@s@-@r =.t@u@v@w@8@x@y@o@o@o@o@o@o@o@o@y@x@8@7@z@A@;+O.<+V.] ] ] ^ O.+ :.M.!.!.M.B@=+l.C@  & { ",
"& D@K+).C B B B B B B z <._+# n.E@F@>@G@I H@I@J@0@a@b@o@o@o@o@o@o@o@o@o@o@b@a@0@J@K@L@^ 0+] ] ] ^ 8+K.y.*+7 <.8 D.J K+-.0+&     ",
"  { h J C B B B B B B B B <.i+M@i@P O t@2@N@O@9@b@a@o@o@o@o@o@o@o@o@o@o@o@o@a@b@9@P@Q@R@] S@U U f J A.J+I z B m &.*.p+J.T@{     ",
"    h J C B B B B B B B B <.4@j+X Q.o U@V@W@X@b@o@o@o@o@o@o@o@o@o@o@o@o@o@o@o@o@b@7@Y@Z@`@U '.=.I C C C z B B z C I =.p+K+~     ",
"   #g ).C B B B B B B B z (+{++ .#t+3.+#@###0@b@y@o@o@o@o@o@o@o@o@o@o@o@o@o@o@y@b@0@$#%#&#).=.I z B B B B B B B B z I V / S {   ",
"& 8+D+=.C B B B B B B z ~+i+K.# M.I+f.*#=#-#8@b@o@o@o@o@o@o@o@o@o@o@o@o@o@o@o@o@b@m@;#>#,#I C z B B B B B B B B B B C *.Y+`.Q   ",
"{ K.J I z B B B B B B <.g.m.z.Z.0.i+)+'#)#!#0@0@o@o@o@o@o@o@o@o@o@o@o@o@o@o@o@o@8@8@~#{#]#z B B B B B B B B B B B B C =.'.f ]   ",
"{ K.A.C B B B B B B z >.$+0 D I z 2.n.^#/#(#9@0@o@o@o@o@o@o@o@o@o@o@o@o@o@o@o@o@0@0@_#:#<#B B B B B B B B B B B B B z I V q.]   ",
"{ K.A.C B B B B B z [#}#0 q I z B z (+|#1#2#8@b@o@o@o@o@o@o@o@o@o@o@o@o@o@o@o@o@b@0@3#4#5#B B B B B B B B B B B B B B C =./ h   ",
"{ I+J+I z B z <.8 >.}#0 q I z B B B z 6#7#8#0@0@o@o@o@o@o@o@o@o@o@o@o@o@o@o@o@o@0@0@9#@#`+B B B B B B B B B B B B B B z I ).A+~ ",
"Q 0#a# .n z 7 g.9.b#0 q I z B B B B B B c#d#e#b@b@o@o@o@o@o@o@o@o@o@o@o@o@o@o@o@b@e#f#V@B B B B B B B B B B B B B B B B C *.q.] ",
"a.g#h#i#` j#L+k#g J D I z B B B B B B B ,@N@O@m@b@x@o@o@o@o@o@o@o@o@o@o@o@o@a@b@1@O@N@,@B B B B B B B B B B B B B B B B C *.q.] ",
"$ < l l#< O m#J q I C z B B B B z C C C A V@I@n#0@a@b@o@o@o@o@o@o@o@o@o@o@b@a@0@n#I@V@B B B B B B B B B B B B B B B B B C *.q.] ",
"Q 6 m <.I o#p#q#I z B B B B B B C O *.O C Z+:@v@r#m@0@s#o@o@o@o@o@o@o@o@s#0@m@r#v@:@Z+B B B B B B B B B B B B B B B B z I _ / ] ",
"% t#8 u#y !+v#s.I z B B B B B B C *.'.*.C Z+Z+w#x#r#0@0@b@b@o@o@o@o@b@b@0@0@r#x#w#Z+Z+B B B B B B B B B B B B B B B z I =.D y#z#",
"{ A#(+7 B#n F V =.I z B B B B B C O V *.C B Z+C#D#9#b@b@m@0@b@E#E#b@0@F#b@b@9#D#C#Z+B B B B B B B B B B B B B B B B m &.O a#} Q ",
"& <+j+f@G#y F e@( =.I C z B B B z C I &.C B B `+2@H#I#J#K#L#m@8@8@m@7@K#M#I#H#2@`+B B B B B B B B B B B B B B B B B z C C m 5 Q ",
"  & . Y f@m m F Q.r _ =.I C z B B B z m z z C C I N#O#P#Q#R#S#T#U#V#W#X#Y#Z#N#I C C C z B B B B B B B z C C C z B B B B A m 5 Q ",
"      . g@`#z m S.P r ( _ =.I C v+p.p.B z I D [.e@ $.$4.+$@$#$$$%$&$*$d+I+=$e@*.*.*.=.I C C C C C C C I O D o n z z z z m F 3 % ",
"        . g@`#!+m l F P r ( q p -$;$>$,$8.Z.K+'$.#..)$!$~$$ -@F F {$F@]$j+j+^$q *.*.*.=.s.=.*.*.*.*.*._ r >@-@X 5 5 5 5 5 3 2   ",
"          . g@_+*@< 7 9 ; ; - - -@< /$T j+K.8+l.=@Q       { Q a.a.$ ' Z ($X.n._$9 7 H C H :$f q.q.q.q./ y#t A#+ $ Q Q Q Q %     ",
"            { Q ) $ a.$ $ # /./.# $ Q % { { { { &                     ] X.<$Q Q ;.(.R B R !.Q ] ] ] ] ] z#% { &                 "};
